<svg xmlns="http://www.w3.org/2000/svg" xmlns:xlink="http://www.w3.org/1999/xlink" xmlns:lucid="lucid" width="2050.33" height="1941"><g transform="translate(-9110.174349606234 -1159.5)" lucid:page-tab-id="qj7HPlkJPpr1"><path d="M0 0h18359.82v8300H0z" fill="#fff"/><path d="M9112.64 1160H11160v1940H9112.64z" stroke="#333" fill="#cfe4ff"/><path d="M9700 2080h1100v296.24H9700z" stroke="#333" fill="#fcfcca"/><path d="M10060 2125.74h300v50.2h-300zM10360 2125.74h300v50.2h-300zM10060 2175.95h300v63.15h-300zM10360 2175.95h300v63.15h-300zM10060 2239.1h300v63.16h-300zM10360 2239.1h300v63.16h-300z" fill="#fff"/><path d="M10060 2125.74v50.2M10360 2125.74v50.2M10660 2125.74v50.2M10060 2175.95v63.15M10360 2175.95v63.15M10660 2175.95v63.15M10060 2239.1v63.16M10360 2239.1v63.16M10660 2239.1v63.16M10060 2125.74h300M10360 2125.74h300M10060 2175.95h300M10360 2175.95h300M10060 2239.1h300M10060 2302.26h300M10360 2239.1h300M10360 2302.26h300" stroke="#333" fill="none"/><use xlink:href="#a" transform="matrix(1,0,0,1,10065,2130.7411997551353) translate(115.41666666666666 27.166666666666668)"/><use xlink:href="#b" transform="matrix(1,0,0,1,10365,2130.7411997551353) translate(90.55555555555554 27.166666666666668)"/><use xlink:href="#c" transform="matrix(1,0,0,1,10065,2180.9492471216236) translate(111.66666666666666 33.66666666666667)"/><use xlink:href="#b" transform="matrix(1,0,0,1,10365,2180.9492471216236) translate(90.55555555555554 33.66666666666667)"/><use xlink:href="#d" transform="matrix(1,0,0,1,10065,2244.104023683244) translate(76.52777777777777 33.66666666666667)"/><use xlink:href="#e" transform="matrix(1,0,0,1,10365,2244.104023683244) translate(98.8425925925926 33.66666666666667)"/><path d="M9700 1340h1129.1v718.73H9700z" stroke="#333" fill="#ffd9d9"/><path d="M9931.47 1431.46h440v66.66h-440zM10371.47 1431.46h440v66.66h-440zM9931.47 1498.13h440v66.66h-440zM10371.47 1498.13h440v66.66h-440zM9931.47 1564.8h440v66.66h-440zM10371.47 1564.8h440v66.66h-440zM9931.47 1631.46h440v66.66h-440zM10371.47 1631.46h440v66.66h-440zM9931.47 1698.13h440v66.66h-440zM10371.47 1698.13h440v66.66h-440zM9931.47 1764.8h440v66.66h-440zM10371.47 1764.8h440v66.66h-440zM9931.47 1831.46h440v66.66h-440zM10371.47 1831.46h440v66.66h-440zM9931.47 1898.13h440v66.66h-440zM10371.47 1898.13h440v66.66h-440zM9931.47 1964.8h440v66.66h-440zM10371.47 1964.8h440v66.66h-440z" fill="#fff"/><path d="M9931.47 1431.46v66.66M10371.47 1431.46v66.66M10811.47 1431.46v66.66M9931.47 1498.13v66.66M10371.47 1498.13v66.66M10811.47 1498.13v66.66M9931.47 1564.8v66.66M10371.47 1564.8v66.66M10811.47 1564.8v66.66M9931.47 1631.46v66.66M10371.47 1631.46v66.66M10811.47 1631.46v66.66M9931.47 1698.13v66.66M10371.47 1698.13v66.66M10811.47 1698.13v66.66M9931.47 1764.8v66.66M10371.47 1764.8v66.66M10811.47 1764.8v66.66M9931.47 1831.46v66.66M10371.47 1831.46v66.66M10811.47 1831.46v66.66M9931.47 1898.13v66.66M10371.47 1898.13v66.66M10811.47 1898.13v66.66M9931.47 1964.8v66.66M10371.47 1964.8v66.66M10811.47 1964.8v66.66M9931.47 1431.46h440M10371.47 1431.46h440M9931.47 1498.13h440M10371.47 1498.13h440M9931.47 1564.8h440M10371.47 1564.8h440M9931.47 1631.46h440M10371.47 1631.46h440M9931.47 1698.13h440M10371.47 1698.13h440M9931.47 1764.8h440M10371.47 1764.8h440M9931.47 1831.46h440M10371.47 1831.46h440M9931.47 1898.13h440M10371.47 1898.13h440M9931.47 1964.8h440M9931.47 2031.46h440M10371.47 1964.8h440M10371.47 2031.46h440" stroke="#333" fill="none"/><use xlink:href="#f" transform="matrix(1,0,0,1,9936.4668436194,1436.4581499644974) translate(145.74074074074073 35.16666666666667)"/><use xlink:href="#b" transform="matrix(1,0,0,1,10376.4668436194,1436.4581499644974) translate(160.55555555555554 35.16666666666667)"/><use xlink:href="#g" transform="matrix(1,0,0,1,9936.4668436194,1503.124816631164) translate(118.88888888888889 35.16666666666667)"/><use xlink:href="#b" transform="matrix(1,0,0,1,10376.4668436194,1503.124816631164) translate(160.55555555555554 35.16666666666667)"/><use xlink:href="#h" transform="matrix(1,0,0,1,9936.4668436194,1569.7914832978306) translate(144.72222222222223 35.16666666666667)"/><use xlink:href="#b" transform="matrix(1,0,0,1,10376.4668436194,1569.7914832978306) translate(160.55555555555554 35.16666666666667)"/><use xlink:href="#i" transform="matrix(1,0,0,1,9936.4668436194,1636.4581499644974) translate(155.92592592592592 35.16666666666667)"/><use xlink:href="#b" transform="matrix(1,0,0,1,10376.4668436194,1636.4581499644974) translate(160.55555555555554 35.16666666666667)"/><use xlink:href="#j" transform="matrix(1,0,0,1,9936.4668436194,1703.1248166311639) translate(179.9537037037037 35.16666666666667)"/><use xlink:href="#b" transform="matrix(1,0,0,1,10376.4668436194,1703.1248166311639) translate(160.55555555555554 35.16666666666667)"/><use xlink:href="#k" transform="matrix(1,0,0,1,9936.4668436194,1769.7914832978306) translate(117.08333333333334 35.16666666666667)"/><use xlink:href="#b" transform="matrix(1,0,0,1,10376.4668436194,1769.7914832978306) translate(160.55555555555554 35.16666666666667)"/><use xlink:href="#l" transform="matrix(1,0,0,1,9936.4668436194,1836.4581499644974) translate(184.49074074074073 35.16666666666667)"/><use xlink:href="#b" transform="matrix(1,0,0,1,10376.4668436194,1836.4581499644974) translate(160.55555555555554 35.16666666666667)"/><use xlink:href="#m" transform="matrix(1,0,0,1,9936.4668436194,1903.1248166311639) translate(159.58333333333334 35.16666666666667)"/><use xlink:href="#b" transform="matrix(1,0,0,1,10376.4668436194,1903.1248166311639) translate(160.55555555555554 35.16666666666667)"/><use xlink:href="#n" transform="matrix(1,0,0,1,9936.4668436194,1969.7914832978306) translate(180.83333333333331 35.16666666666667)"/><use xlink:href="#o" transform="matrix(1,0,0,1,10376.4668436194,1969.7914832978306) translate(131.80555555555554 35.16666666666667)"/><path d="M9691.47 1560h240v60h-240z" fill="none"/><use xlink:href="#p" transform="matrix(1,0,0,1,9691.4668436194,1560) translate(20.138888888888886 36.66666666666667)"/><path d="M9700 2397.5h1420v660H9700z" stroke="#333" fill="#c3f7c8"/><path d="M9980 2464.45h500v62.15h-500zM10480 2464.45h500v62.15h-500zM9980 2526.6h500v62.14h-500zM10480 2526.6h500v62.14h-500zM9980 2588.74h500v62.15h-500zM10480 2588.74h500v62.15h-500zM9980 2650.9h500v62.13h-500zM10480 2650.9h500v62.13h-500zM9980 2713.03h500v62.15h-500zM10480 2713.03h500v62.15h-500z" fill="#fff"/><path d="M9980 2775.18h500v62.15h-500zM10480 2775.18h500v62.15h-500zM9980 2837.33h500v62.14h-500zM10480 2837.33h500v62.14h-500zM9980 2899.47h500v62.15h-500zM10480 2899.47h500v62.15h-500zM9980 2961.62h500v50h-500zM10480 2961.62h500v50h-500z" fill="#fff"/><path d="M9980 2464.45v62.15M10480 2464.45v62.15M10980 2464.45v62.15M9980 2526.6v62.14M10480 2526.6v62.14M10980 2526.6v62.14M9980 2588.74v62.15M10480 2588.74v62.15M10980 2588.74v62.15M9980 2650.9v62.13M10480 2650.9v62.13M10980 2650.9v62.13M9980 2713.03v62.15M10480 2713.03v62.15M10980 2713.03v62.15M9980 2775.18v62.15M10480 2775.18v62.15M10980 2775.18v62.15M9980 2837.33v62.14M10480 2837.33v62.14M10980 2837.33v62.14M9980 2899.47v62.15M10480 2899.47v62.15M10980 2899.47v62.15M9980 2961.62v50M10480 2961.62v50M10980 2961.62v50M9980 2464.45h500M10480 2464.45h500M9980 2526.6h500M10480 2526.6h500M9980 2588.74h500M10480 2588.74h500M9980 2650.9h500M10480 2650.9h500M9980 2713.03h500M10480 2713.03h500M9980 2775.18h500M10480 2775.18h500M9980 2837.33h500M10480 2837.33h500M9980 2899.47h500M10480 2899.47h500M9980 2961.62h500M9980 3011.62h500M10480 2961.62h500M10480 3011.62h500" stroke="#333" fill="none"/><use xlink:href="#f" transform="matrix(1,0,0,1,9985,2469.4512049354717) translate(175.74074074074073 33.16666666666667)"/><use xlink:href="#b" transform="matrix(1,0,0,1,10485,2469.4512049354717) translate(190.55555555555554 33.16666666666667)"/><use xlink:href="#g" transform="matrix(1,0,0,1,9985,2531.5971181866066) translate(148.88888888888889 33.16666666666667)"/><use xlink:href="#b" transform="matrix(1,0,0,1,10485,2531.5971181866066) translate(190.55555555555554 33.16666666666667)"/><use xlink:href="#h" transform="matrix(1,0,0,1,9985,2593.743031437742) translate(174.72222222222223 33.16666666666667)"/><use xlink:href="#b" transform="matrix(1,0,0,1,10485,2593.743031437742) translate(190.55555555555554 33.16666666666667)"/><use xlink:href="#i" transform="matrix(1,0,0,1,9985,2655.888944688877) translate(185.92592592592592 33.16666666666667)"/><use xlink:href="#b" transform="matrix(1,0,0,1,10485,2655.888944688877) translate(190.55555555555554 33.16666666666667)"/><use xlink:href="#j" transform="matrix(1,0,0,1,9985,2718.034857940012) translate(209.9537037037037 33.16666666666667)"/><use xlink:href="#b" transform="matrix(1,0,0,1,10485,2718.034857940012) translate(190.55555555555554 33.16666666666667)"/><use xlink:href="#k" transform="matrix(1,0,0,1,9985,2780.180771191147) translate(147.08333333333334 33.16666666666667)"/><use xlink:href="#b" transform="matrix(1,0,0,1,10485,2780.180771191147) translate(190.55555555555554 33.16666666666667)"/><use xlink:href="#l" transform="matrix(1,0,0,1,9985,2842.3266844422824) translate(214.49074074074073 33.16666666666667)"/><use xlink:href="#b" transform="matrix(1,0,0,1,10485,2842.3266844422824) translate(190.55555555555554 33.16666666666667)"/><use xlink:href="#m" transform="matrix(1,0,0,1,9985,2904.4725976934174) translate(189.58333333333334 33.16666666666667)"/><use xlink:href="#b" transform="matrix(1,0,0,1,10485,2904.4725976934174) translate(190.55555555555554 33.16666666666667)"/><use xlink:href="#n" transform="matrix(1,0,0,1,9985,2966.6185109445523) translate(210.83333333333331 27.166666666666668)"/><use xlink:href="#o" transform="matrix(1,0,0,1,10485,2966.6185109445523) translate(161.80555555555554 27.166666666666668)"/><path d="M9700 2087.7h240v60h-240z" fill="none"/><use xlink:href="#q" transform="matrix(1,0,0,1,9700,2087.698214983072) translate(20.231481481481467 36.66666666666667)"/><use xlink:href="#r" transform="matrix(1,0,0,1,9700,2087.698214983072) translate(208.75000000000003 36.66666666666667)"/><path d="M9640 2397.5h360v88.9h-360z" fill="none"/><use xlink:href="#s" transform="matrix(1,0,0,1,9640,2397.5108495280056) translate(86.62037037037035 51.16666666666667)"/><use xlink:href="#t" transform="matrix(1,0,0,1,9640,2397.5108495280056) translate(262.36111111111114 51.16666666666667)"/><path d="M9740 1360h292.8v56H9740z" fill="none"/><use xlink:href="#u" transform="matrix(1,0,0,1,9740,1360) translate(25.43518518518519 34.66666666666667)"/><use xlink:href="#r" transform="matrix(1,0,0,1,9740,1360) translate(256.5462962962963 34.66666666666667)"/><path d="M9780 2200h240v60h-240z" fill="none"/><use xlink:href="#v" transform="matrix(1,0,0,1,9780,2200) translate(40.46296296296296 36.66666666666667)"/><path d="M9700 2660h240v60h-240z" fill="none"/><use xlink:href="#w" transform="matrix(1,0,0,1,9700,2660) translate(105.23148148148148 36.66666666666667)"/><path d="M9110.17 1180h240v60h-240z" fill="none"/><use xlink:href="#x" transform="matrix(1,0,0,1,9110.174349606234,1180) translate(59.9537037037037 36.66666666666667)"/><use xlink:href="#r" transform="matrix(1,0,0,1,9110.174349606234,1180) translate(169.02777777777777 36.66666666666667)"/><path d="M9120 2087.7h240v60h-240z" fill="none"/><g><use xlink:href="#w" transform="matrix(1,0,0,1,9120,2087.698214983072) translate(105.23148148148148 36.66666666666667)"/></g><defs><path d="M220-157c-53 9-28 100-34 157h-49v-107c1-27-5-49-29-50C55-147 81-57 75 0H25l-1-190h47c2 12-1 28 3 38 10-53 101-56 108 0 13-22 24-43 59-42 82 1 51 116 57 194h-49v-107c-1-25-5-48-29-50" id="y"/><path d="M25-224v-37h50v37H25zM25 0v-190h50V0H25" id="z"/><path d="M135-194c87-1 58 113 63 194h-50c-7-57 23-157-34-157-59 0-34 97-39 157H25l-1-190h47c2 12-1 28 3 38 12-26 28-41 61-42" id="A"/><g id="a"><use transform="matrix(0.0925925925925926,0,0,0.0925925925925926,0,0)" xlink:href="#y"/><use transform="matrix(0.0925925925925926,0,0,0.0925925925925926,29.629629629629633,0)" xlink:href="#z"/><use transform="matrix(0.0925925925925926,0,0,0.0925925925925926,38.88888888888889,0)" xlink:href="#A"/></g><path d="M88-194c31-1 46 15 58 34l-1-101h50l1 261h-48c-2-10 0-23-3-31C134-8 116 4 84 4 32 4 16-41 15-95c0-56 19-97 73-99zm17 164c33 0 40-30 41-66 1-37-9-64-41-64s-38 30-39 65c0 43 13 65 39 65" id="B"/><path d="M110-194c64 0 96 36 96 99 0 64-35 99-97 99-61 0-95-36-95-99 0-62 34-99 96-99zm-1 164c35 0 45-28 45-65 0-40-10-65-43-65-34 0-45 26-45 65 0 36 10 65 43 65" id="C"/><path d="M85 4C-2 5 27-109 22-190h50c7 57-23 150 33 157 60-5 35-97 40-157h50l1 190h-47c-2-12 1-28-3-38-12 25-28 42-61 42" id="D"/><path d="M135-194c52 0 70 43 70 98 0 56-19 99-73 100-30 1-46-15-58-35L72 0H24l1-261h50v104c11-23 29-37 60-37zM114-30c31 0 40-27 40-66 0-37-7-63-39-63s-41 28-41 65c0 36 8 64 40 64" id="E"/><path d="M25 0v-261h50V0H25" id="F"/><path d="M185-48c-13 30-37 53-82 52C43 2 14-33 14-96s30-98 90-98c62 0 83 45 84 108H66c0 31 8 55 39 56 18 0 30-7 34-22zm-45-69c5-46-57-63-70-21-2 6-4 13-4 21h74" id="G"/><g id="b"><use transform="matrix(0.0925925925925926,0,0,0.0925925925925926,0,0)" xlink:href="#B"/><use transform="matrix(0.0925925925925926,0,0,0.0925925925925926,20.27777777777778,0)" xlink:href="#C"/><use transform="matrix(0.0925925925925926,0,0,0.0925925925925926,40.55555555555556,0)" xlink:href="#D"/><use transform="matrix(0.0925925925925926,0,0,0.0925925925925926,60.833333333333336,0)" xlink:href="#E"/><use transform="matrix(0.0925925925925926,0,0,0.0925925925925926,81.11111111111111,0)" xlink:href="#F"/><use transform="matrix(0.0925925925925926,0,0,0.0925925925925926,90.37037037037038,0)" xlink:href="#G"/></g><path d="M133-34C117-15 103 5 69 4 32 3 11-16 11-54c-1-60 55-63 116-61 1-26-3-47-28-47-18 1-26 9-28 27l-52-2c7-38 36-58 82-57s74 22 75 68l1 82c-1 14 12 18 25 15v27c-30 8-71 5-69-32zm-48 3c29 0 43-24 42-57-32 0-66-3-65 30 0 17 8 27 23 27" id="H"/><path d="M144 0l-44-69L55 0H2l70-98-66-92h53l41 62 40-62h54l-67 91 71 99h-54" id="I"/><g id="c"><use transform="matrix(0.0925925925925926,0,0,0.0925925925925926,0,0)" xlink:href="#y"/><use transform="matrix(0.0925925925925926,0,0,0.0925925925925926,29.629629629629633,0)" xlink:href="#H"/><use transform="matrix(0.0925925925925926,0,0,0.0925925925925926,48.14814814814815,0)" xlink:href="#I"/></g><path d="M137-138c1-29-70-34-71-4 15 46 118 7 119 86 1 83-164 76-172 9l43-7c4 19 20 25 44 25 33 8 57-30 24-41C81-84 22-81 20-136c-2-80 154-74 161-7" id="J"/><path d="M135-150c-39-12-60 13-60 57V0H25l-1-190h47c2 13-1 29 3 40 6-28 27-53 61-41v41" id="K"/><g id="d"><use transform="matrix(0.0925925925925926,0,0,0.0925925925925926,0,0)" xlink:href="#y"/><use transform="matrix(0.0925925925925926,0,0,0.0925925925925926,29.629629629629633,0)" xlink:href="#G"/><use transform="matrix(0.0925925925925926,0,0,0.0925925925925926,48.14814814814815,0)" xlink:href="#H"/><use transform="matrix(0.0925925925925926,0,0,0.0925925925925926,66.66666666666667,0)" xlink:href="#J"/><use transform="matrix(0.0925925925925926,0,0,0.0925925925925926,85.18518518518519,0)" xlink:href="#D"/><use transform="matrix(0.0925925925925926,0,0,0.0925925925925926,105.46296296296295,0)" xlink:href="#K"/><use transform="matrix(0.0925925925925926,0,0,0.0925925925925926,118.42592592592591,0)" xlink:href="#G"/></g><path d="M115-3C79 11 28 4 28-45v-112H4v-33h27l15-45h31v45h36v33H77v99c-1 23 16 31 38 25v30" id="L"/><path d="M195-6C206 82 75 100 31 46c-4-6-6-13-8-21l49-6c3 16 16 24 34 25 40 0 42-37 40-79-11 22-30 35-61 35-53 0-70-43-70-97 0-56 18-96 73-97 30 0 46 14 59 34l2-30h47zm-90-29c32 0 41-27 41-63 0-35-9-62-40-62-32 0-39 29-40 63 0 36 9 62 39 62" id="M"/><g id="e"><use transform="matrix(0.0925925925925926,0,0,0.0925925925925926,0,0)" xlink:href="#J"/><use transform="matrix(0.0925925925925926,0,0,0.0925925925925926,18.51851851851852,0)" xlink:href="#L"/><use transform="matrix(0.0925925925925926,0,0,0.0925925925925926,29.537037037037038,0)" xlink:href="#K"/><use transform="matrix(0.0925925925925926,0,0,0.0925925925925926,42.5,0)" xlink:href="#z"/><use transform="matrix(0.0925925925925926,0,0,0.0925925925925926,51.75925925925927,0)" xlink:href="#A"/><use transform="matrix(0.0925925925925926,0,0,0.0925925925925926,72.03703703703704,0)" xlink:href="#M"/></g><path d="M114-157C55-157 80-60 75 0H25v-261h50l-1 109c12-26 28-41 61-42 86-1 58 113 63 194h-50c-7-57 23-157-34-157" id="N"/><path d="M123 10C108 53 80 86 19 72V37c35 8 53-11 59-39L3-190h52l48 148c12-52 28-100 44-148h51" id="O"/><g id="f"><use transform="matrix(0.0925925925925926,0,0,0.0925925925925926,0,0)" xlink:href="#N"/><use transform="matrix(0.0925925925925926,0,0,0.0925925925925926,20.27777777777778,0)" xlink:href="#D"/><use transform="matrix(0.0925925925925926,0,0,0.0925925925925926,40.55555555555556,0)" xlink:href="#y"/><use transform="matrix(0.0925925925925926,0,0,0.0925925925925926,70.18518518518519,0)" xlink:href="#z"/><use transform="matrix(0.0925925925925926,0,0,0.0925925925925926,79.44444444444446,0)" xlink:href="#B"/><use transform="matrix(0.0925925925925926,0,0,0.0925925925925926,99.72222222222223,0)" xlink:href="#z"/><use transform="matrix(0.0925925925925926,0,0,0.0925925925925926,108.9814814814815,0)" xlink:href="#L"/><use transform="matrix(0.0925925925925926,0,0,0.0925925925925926,120.00000000000001,0)" xlink:href="#O"/></g><path d="M135-194c53 0 70 44 70 98 0 56-19 98-73 100-31 1-45-17-59-34 3 33 2 69 2 105H25l-1-265h48c2 10 0 23 3 31 11-24 29-35 60-35zM114-30c33 0 39-31 40-66 0-38-9-64-40-64-56 0-55 130 0 130" id="P"/><g id="g"><use transform="matrix(0.0925925925925926,0,0,0.0925925925925926,0,0)" xlink:href="#L"/><use transform="matrix(0.0925925925925926,0,0,0.0925925925925926,11.018518518518519,0)" xlink:href="#G"/><use transform="matrix(0.0925925925925926,0,0,0.0925925925925926,29.537037037037038,0)" xlink:href="#y"/><use transform="matrix(0.0925925925925926,0,0,0.0925925925925926,59.16666666666667,0)" xlink:href="#P"/><use transform="matrix(0.0925925925925926,0,0,0.0925925925925926,79.44444444444446,0)" xlink:href="#G"/><use transform="matrix(0.0925925925925926,0,0,0.0925925925925926,97.96296296296298,0)" xlink:href="#K"/><use transform="matrix(0.0925925925925926,0,0,0.0925925925925926,110.92592592592594,0)" xlink:href="#H"/><use transform="matrix(0.0925925925925926,0,0,0.0925925925925926,129.44444444444446,0)" xlink:href="#L"/><use transform="matrix(0.0925925925925926,0,0,0.0925925925925926,140.462962962963,0)" xlink:href="#D"/><use transform="matrix(0.0925925925925926,0,0,0.0925925925925926,160.74074074074076,0)" xlink:href="#K"/><use transform="matrix(0.0925925925925926,0,0,0.0925925925925926,173.70370370370372,0)" xlink:href="#G"/></g><g id="h"><use transform="matrix(0.0925925925925926,0,0,0.0925925925925926,0,0)" xlink:href="#P"/><use transform="matrix(0.0925925925925926,0,0,0.0925925925925926,20.27777777777778,0)" xlink:href="#K"/><use transform="matrix(0.0925925925925926,0,0,0.0925925925925926,33.24074074074074,0)" xlink:href="#G"/><use transform="matrix(0.0925925925925926,0,0,0.0925925925925926,51.75925925925927,0)" xlink:href="#J"/><use transform="matrix(0.0925925925925926,0,0,0.0925925925925926,70.27777777777777,0)" xlink:href="#J"/><use transform="matrix(0.0925925925925926,0,0,0.0925925925925926,88.79629629629629,0)" xlink:href="#D"/><use transform="matrix(0.0925925925925926,0,0,0.0925925925925926,109.07407407407409,0)" xlink:href="#K"/><use transform="matrix(0.0925925925925926,0,0,0.0925925925925926,122.03703703703705,0)" xlink:href="#G"/></g><g id="i"><use transform="matrix(0.0925925925925926,0,0,0.0925925925925926,0,0)" xlink:href="#H"/><use transform="matrix(0.0925925925925926,0,0,0.0925925925925926,18.51851851851852,0)" xlink:href="#F"/><use transform="matrix(0.0925925925925926,0,0,0.0925925925925926,27.777777777777782,0)" xlink:href="#L"/><use transform="matrix(0.0925925925925926,0,0,0.0925925925925926,38.7962962962963,0)" xlink:href="#z"/><use transform="matrix(0.0925925925925926,0,0,0.0925925925925926,48.05555555555556,0)" xlink:href="#L"/><use transform="matrix(0.0925925925925926,0,0,0.0925925925925926,59.074074074074076,0)" xlink:href="#D"/><use transform="matrix(0.0925925925925926,0,0,0.0925925925925926,79.35185185185185,0)" xlink:href="#B"/><use transform="matrix(0.0925925925925926,0,0,0.0925925925925926,99.62962962962962,0)" xlink:href="#G"/></g><g id="j"><use transform="matrix(0.0925925925925926,0,0,0.0925925925925926,0,0)" xlink:href="#F"/><use transform="matrix(0.0925925925925926,0,0,0.0925925925925926,9.25925925925926,0)" xlink:href="#z"/><use transform="matrix(0.0925925925925926,0,0,0.0925925925925926,18.51851851851852,0)" xlink:href="#M"/><use transform="matrix(0.0925925925925926,0,0,0.0925925925925926,38.7962962962963,0)" xlink:href="#N"/><use transform="matrix(0.0925925925925926,0,0,0.0925925925925926,59.074074074074076,0)" xlink:href="#L"/></g><path d="M230 0l2-204L168 0h-37L68-204 70 0H24v-248h70l56 185 57-185h69V0h-46" id="Q"/><g id="k"><use transform="matrix(0.0925925925925926,0,0,0.0925925925925926,0,0)" xlink:href="#J"/><use transform="matrix(0.0925925925925926,0,0,0.0925925925925926,18.51851851851852,0)" xlink:href="#C"/><use transform="matrix(0.0925925925925926,0,0,0.0925925925925926,38.7962962962963,0)" xlink:href="#z"/><use transform="matrix(0.0925925925925926,0,0,0.0925925925925926,48.05555555555556,0)" xlink:href="#F"/><use transform="matrix(0.0925925925925926,0,0,0.0925925925925926,57.314814814814824,0)" xlink:href="#Q"/><use transform="matrix(0.0925925925925926,0,0,0.0925925925925926,85,0)" xlink:href="#C"/><use transform="matrix(0.0925925925925926,0,0,0.0925925925925926,105.27777777777777,0)" xlink:href="#z"/><use transform="matrix(0.0925925925925926,0,0,0.0925925925925926,114.53703703703705,0)" xlink:href="#J"/><use transform="matrix(0.0925925925925926,0,0,0.0925925925925926,133.05555555555554,0)" xlink:href="#L"/><use transform="matrix(0.0925925925925926,0,0,0.0925925925925926,144.07407407407408,0)" xlink:href="#D"/><use transform="matrix(0.0925925925925926,0,0,0.0925925925925926,164.35185185185185,0)" xlink:href="#K"/><use transform="matrix(0.0925925925925926,0,0,0.0925925925925926,177.3148148148148,0)" xlink:href="#G"/></g><g id="l"><use transform="matrix(0.0925925925925926,0,0,0.0925925925925926,0,0)" xlink:href="#K"/><use transform="matrix(0.0925925925925926,0,0,0.0925925925925926,12.962962962962964,0)" xlink:href="#H"/><use transform="matrix(0.0925925925925926,0,0,0.0925925925925926,31.48148148148148,0)" xlink:href="#z"/><use transform="matrix(0.0925925925925926,0,0,0.0925925925925926,40.74074074074074,0)" xlink:href="#A"/></g><g id="m"><use transform="matrix(0.0925925925925926,0,0,0.0925925925925926,0,0)" xlink:href="#E"/><use transform="matrix(0.0925925925925926,0,0,0.0925925925925926,20.27777777777778,0)" xlink:href="#H"/><use transform="matrix(0.0925925925925926,0,0,0.0925925925925926,38.7962962962963,0)" xlink:href="#L"/><use transform="matrix(0.0925925925925926,0,0,0.0925925925925926,49.81481481481482,0)" xlink:href="#L"/><use transform="matrix(0.0925925925925926,0,0,0.0925925925925926,60.833333333333336,0)" xlink:href="#G"/><use transform="matrix(0.0925925925925926,0,0,0.0925925925925926,79.35185185185185,0)" xlink:href="#K"/><use transform="matrix(0.0925925925925926,0,0,0.0925925925925926,92.31481481481481,0)" xlink:href="#O"/></g><g id="n"><use transform="matrix(0.0925925925925926,0,0,0.0925925925925926,0,0)" xlink:href="#B"/><use transform="matrix(0.0925925925925926,0,0,0.0925925925925926,20.27777777777778,0)" xlink:href="#H"/><use transform="matrix(0.0925925925925926,0,0,0.0925925925925926,38.7962962962963,0)" xlink:href="#L"/><use transform="matrix(0.0925925925925926,0,0,0.0925925925925926,49.81481481481482,0)" xlink:href="#G"/></g><g id="o"><use transform="matrix(0.0925925925925926,0,0,0.0925925925925926,0,0)" xlink:href="#L"/><use transform="matrix(0.0925925925925926,0,0,0.0925925925925926,11.018518518518519,0)" xlink:href="#z"/><use transform="matrix(0.0925925925925926,0,0,0.0925925925925926,20.27777777777778,0)" xlink:href="#y"/><use transform="matrix(0.0925925925925926,0,0,0.0925925925925926,49.90740740740741,0)" xlink:href="#G"/><use transform="matrix(0.0925925925925926,0,0,0.0925925925925926,68.42592592592592,0)" xlink:href="#J"/><use transform="matrix(0.0925925925925926,0,0,0.0925925925925926,86.94444444444444,0)" xlink:href="#L"/><use transform="matrix(0.0925925925925926,0,0,0.0925925925925926,97.96296296296298,0)" xlink:href="#H"/><use transform="matrix(0.0925925925925926,0,0,0.0925925925925926,116.48148148148147,0)" xlink:href="#y"/><use transform="matrix(0.0925925925925926,0,0,0.0925925925925926,146.11111111111111,0)" xlink:href="#P"/></g><path fill="#333" d="M137-138c1-29-70-34-71-4 15 46 118 7 119 86 1 83-164 76-172 9l43-7c4 19 20 25 44 25 33 8 57-30 24-41C81-84 22-81 20-136c-2-80 154-74 161-7" id="R"/><path fill="#333" d="M185-48c-13 30-37 53-82 52C43 2 14-33 14-96s30-98 90-98c62 0 83 45 84 108H66c0 31 8 55 39 56 18 0 30-7 34-22zm-45-69c5-46-57-63-70-21-2 6-4 13-4 21h74" id="S"/><path fill="#333" d="M135-194c87-1 58 113 63 194h-50c-7-57 23-157-34-157-59 0-34 97-39 157H25l-1-190h47c2 12-1 28 3 38 12-26 28-41 61-42" id="T"/><path fill="#333" d="M110-194c64 0 96 36 96 99 0 64-35 99-97 99-61 0-95-36-95-99 0-62 34-99 96-99zm-1 164c35 0 45-28 45-65 0-40-10-65-43-65-34 0-45 26-45 65 0 36 10 65 43 65" id="U"/><path fill="#333" d="M135-150c-39-12-60 13-60 57V0H25l-1-190h47c2 13-1 29 3 40 6-28 27-53 61-41v41" id="V"/><path fill="#333" d="M175 0L67-191c6 58 2 128 3 191H24v-248h59L193-55c-6-58-2-129-3-193h46V0h-61" id="W"/><path fill="#333" d="M133-34C117-15 103 5 69 4 32 3 11-16 11-54c-1-60 55-63 116-61 1-26-3-47-28-47-18 1-26 9-28 27l-52-2c7-38 36-58 82-57s74 22 75 68l1 82c-1 14 12 18 25 15v27c-30 8-71 5-69-32zm-48 3c29 0 43-24 42-57-32 0-66-3-65 30 0 17 8 27 23 27" id="X"/><path fill="#333" d="M220-157c-53 9-28 100-34 157h-49v-107c1-27-5-49-29-50C55-147 81-57 75 0H25l-1-190h47c2 12-1 28 3 38 10-53 101-56 108 0 13-22 24-43 59-42 82 1 51 116 57 194h-49v-107c-1-25-5-48-29-50" id="Y"/><g id="p"><use transform="matrix(0.0925925925925926,0,0,0.0925925925925926,0,0)" xlink:href="#R"/><use transform="matrix(0.0925925925925926,0,0,0.0925925925925926,18.51851851851852,0)" xlink:href="#S"/><use transform="matrix(0.0925925925925926,0,0,0.0925925925925926,37.03703703703704,0)" xlink:href="#T"/><use transform="matrix(0.0925925925925926,0,0,0.0925925925925926,57.314814814814824,0)" xlink:href="#R"/><use transform="matrix(0.0925925925925926,0,0,0.0925925925925926,75.83333333333334,0)" xlink:href="#U"/><use transform="matrix(0.0925925925925926,0,0,0.0925925925925926,96.11111111111111,0)" xlink:href="#V"/><use transform="matrix(0.0925925925925926,0,0,0.0925925925925926,109.07407407407409,0)" xlink:href="#W"/><use transform="matrix(0.0925925925925926,0,0,0.0925925925925926,133.05555555555557,0)" xlink:href="#X"/><use transform="matrix(0.0925925925925926,0,0,0.0925925925925926,151.57407407407408,0)" xlink:href="#Y"/><use transform="matrix(0.0925925925925926,0,0,0.0925925925925926,181.2037037037037,0)" xlink:href="#S"/></g><path fill="#333" d="M85 4C-2 5 27-109 22-190h50c7 57-23 150 33 157 60-5 35-97 40-157h50l1 190h-47c-2-12 1-28-3-38-12 25-28 42-61 42" id="Z"/><path fill="#333" d="M24 0v-248h52v208h133V0H24" id="aa"/><path fill="#333" d="M25-224v-37h50v37H25zM25 0v-190h50V0H25" id="ab"/><path fill="#333" d="M115-3C79 11 28 4 28-45v-112H4v-33h27l15-45h31v45h36v33H77v99c-1 23 16 31 38 25v30" id="ac"/><path fill="#333" d="M20 75v-336h95v34H67V41h48v34H20" id="ad"/><g id="q"><use transform="matrix(0.0925925925925926,0,0,0.0925925925925926,0,0)" xlink:href="#Z"/><use transform="matrix(0.0925925925925926,0,0,0.0925925925925926,20.27777777777778,0)" xlink:href="#R"/><use transform="matrix(0.0925925925925926,0,0,0.0925925925925926,38.7962962962963,0)" xlink:href="#S"/><use transform="matrix(0.0925925925925926,0,0,0.0925925925925926,57.314814814814824,0)" xlink:href="#V"/><use transform="matrix(0.0925925925925926,0,0,0.0925925925925926,70.27777777777779,0)" xlink:href="#aa"/><use transform="matrix(0.0925925925925926,0,0,0.0925925925925926,90.55555555555557,0)" xlink:href="#ab"/><use transform="matrix(0.0925925925925926,0,0,0.0925925925925926,99.81481481481485,0)" xlink:href="#Y"/><use transform="matrix(0.0925925925925926,0,0,0.0925925925925926,129.44444444444446,0)" xlink:href="#ab"/><use transform="matrix(0.0925925925925926,0,0,0.0925925925925926,138.70370370370372,0)" xlink:href="#ac"/><use transform="matrix(0.0925925925925926,0,0,0.0925925925925926,149.72222222222223,0)" xlink:href="#R"/><use transform="matrix(0.0925925925925926,0,0,0.0925925925925926,168.24074074074076,0)" xlink:href="#ad"/></g><path fill="#333" d="M4 75V41h49v-268H4v-34h96V75H4" id="ae"/><use transform="matrix(0.0925925925925926,0,0,0.0925925925925926,0,0)" xlink:href="#ae" id="r"/><g id="s"><use transform="matrix(0.0925925925925926,0,0,0.0925925925925926,0,0)" xlink:href="#Y"/><use transform="matrix(0.0925925925925926,0,0,0.0925925925925926,29.629629629629633,0)" xlink:href="#S"/><use transform="matrix(0.0925925925925926,0,0,0.0925925925925926,48.14814814814815,0)" xlink:href="#X"/><use transform="matrix(0.0925925925925926,0,0,0.0925925925925926,66.66666666666667,0)" xlink:href="#R"/><use transform="matrix(0.0925925925925926,0,0,0.0925925925925926,85.18518518518519,0)" xlink:href="#Z"/><use transform="matrix(0.0925925925925926,0,0,0.0925925925925926,105.46296296296295,0)" xlink:href="#V"/><use transform="matrix(0.0925925925925926,0,0,0.0925925925925926,118.42592592592591,0)" xlink:href="#S"/><use transform="matrix(0.0925925925925926,0,0,0.0925925925925926,136.94444444444446,0)" xlink:href="#R"/><use transform="matrix(0.0925925925925926,0,0,0.0925925925925926,155.462962962963,0)" xlink:href="#ad"/></g><use transform="matrix(0.0925925925925926,0,0,0.0925925925925926,0,0)" xlink:href="#ae" id="t"/><path fill="#333" d="M25 0v-261h50V0H25" id="af"/><path fill="#333" d="M230 0l2-204L168 0h-37L68-204 70 0H24v-248h70l56 185 57-185h69V0h-46" id="ag"/><g id="u"><use transform="matrix(0.0925925925925926,0,0,0.0925925925925926,0,0)" xlink:href="#af"/><use transform="matrix(0.0925925925925926,0,0,0.0925925925925926,9.25925925925926,0)" xlink:href="#X"/><use transform="matrix(0.0925925925925926,0,0,0.0925925925925926,27.777777777777782,0)" xlink:href="#R"/><use transform="matrix(0.0925925925925926,0,0,0.0925925925925926,46.2962962962963,0)" xlink:href="#ac"/><use transform="matrix(0.0925925925925926,0,0,0.0925925925925926,57.314814814814824,0)" xlink:href="#ag"/><use transform="matrix(0.0925925925925926,0,0,0.0925925925925926,85,0)" xlink:href="#S"/><use transform="matrix(0.0925925925925926,0,0,0.0925925925925926,103.51851851851853,0)" xlink:href="#X"/><use transform="matrix(0.0925925925925926,0,0,0.0925925925925926,122.03703703703705,0)" xlink:href="#R"/><use transform="matrix(0.0925925925925926,0,0,0.0925925925925926,140.55555555555554,0)" xlink:href="#Z"/><use transform="matrix(0.0925925925925926,0,0,0.0925925925925926,160.83333333333331,0)" xlink:href="#V"/><use transform="matrix(0.0925925925925926,0,0,0.0925925925925926,173.79629629629628,0)" xlink:href="#S"/><use transform="matrix(0.0925925925925926,0,0,0.0925925925925926,192.31481481481478,0)" xlink:href="#R"/><use transform="matrix(0.0925925925925926,0,0,0.0925925925925926,210.83333333333331,0)" xlink:href="#ad"/></g><g id="v"><use transform="matrix(0.0925925925925926,0,0,0.0925925925925926,0,0)" xlink:href="#af"/><use transform="matrix(0.0925925925925926,0,0,0.0925925925925926,9.25925925925926,0)" xlink:href="#ab"/><use transform="matrix(0.0925925925925926,0,0,0.0925925925925926,18.51851851851852,0)" xlink:href="#Y"/><use transform="matrix(0.0925925925925926,0,0,0.0925925925925926,48.14814814814815,0)" xlink:href="#ab"/><use transform="matrix(0.0925925925925926,0,0,0.0925925925925926,57.40740740740741,0)" xlink:href="#ac"/><use transform="matrix(0.0925925925925926,0,0,0.0925925925925926,68.42592592592592,0)" xlink:href="#W"/><use transform="matrix(0.0925925925925926,0,0,0.0925925925925926,92.4074074074074,0)" xlink:href="#X"/><use transform="matrix(0.0925925925925926,0,0,0.0925925925925926,110.92592592592591,0)" xlink:href="#Y"/><use transform="matrix(0.0925925925925926,0,0,0.0925925925925926,140.55555555555554,0)" xlink:href="#S"/></g><path fill="#333" d="M88-194c31-1 46 15 58 34l-1-101h50l1 261h-48c-2-10 0-23-3-31C134-8 116 4 84 4 32 4 16-41 15-95c0-56 19-97 73-99zm17 164c33 0 40-30 41-66 1-37-9-64-41-64s-38 30-39 65c0 43 13 65 39 65" id="ah"/><g id="w"><use transform="matrix(0.0925925925925926,0,0,0.0925925925925926,0,0)" xlink:href="#ab"/><use transform="matrix(0.0925925925925926,0,0,0.0925925925925926,9.25925925925926,0)" xlink:href="#ah"/></g><g id="x"><use transform="matrix(0.0925925925925926,0,0,0.0925925925925926,0,0)" xlink:href="#Z"/><use transform="matrix(0.0925925925925926,0,0,0.0925925925925926,20.27777777777778,0)" xlink:href="#R"/><use transform="matrix(0.0925925925925926,0,0,0.0925925925925926,38.7962962962963,0)" xlink:href="#S"/><use transform="matrix(0.0925925925925926,0,0,0.0925925925925926,57.314814814814824,0)" xlink:href="#V"/><use transform="matrix(0.0925925925925926,0,0,0.0925925925925926,70.27777777777779,0)" xlink:href="#R"/><use transform="matrix(0.0925925925925926,0,0,0.0925925925925926,88.7962962962963,0)" xlink:href="#ad"/></g></defs></g></svg>