<svg xmlns="http://www.w3.org/2000/svg" xmlns:xlink="http://www.w3.org/1999/xlink" xmlns:lucid="lucid" width="881" height="601"><g transform="translate(-9930.9668436194 -1430.9581499644974)" lucid:page-tab-id="qj7HPlkJPpr1"><path d="M0 0h18359.82v8300H0z" fill="#fff"/><path d="M9931.47 1431.46h440v66.66h-440zM10371.47 1431.46h440v66.66h-440zM9931.47 1498.13h440v66.66h-440zM10371.47 1498.13h440v66.66h-440zM9931.47 1564.8h440v66.66h-440zM10371.47 1564.8h440v66.66h-440zM9931.47 1631.46h440v66.66h-440zM10371.47 1631.46h440v66.66h-440zM9931.47 1698.13h440v66.66h-440zM10371.47 1698.13h440v66.66h-440zM9931.47 1764.8h440v66.66h-440zM10371.47 1764.8h440v66.66h-440zM9931.47 1831.46h440v66.66h-440zM10371.47 1831.46h440v66.66h-440zM9931.47 1898.13h440v66.66h-440zM10371.47 1898.13h440v66.66h-440zM9931.47 1964.8h440v66.66h-440zM10371.47 1964.8h440v66.66h-440z" fill="#fff"/><path d="M9931.47 1431.46v66.66M10371.47 1431.46v66.66M10811.47 1431.46v66.66M9931.47 1498.13v66.66M10371.47 1498.13v66.66M10811.47 1498.13v66.66M9931.47 1564.8v66.66M10371.47 1564.8v66.66M10811.47 1564.8v66.66M9931.47 1631.46v66.66M10371.47 1631.46v66.66M10811.47 1631.46v66.66M9931.47 1698.13v66.66M10371.47 1698.13v66.66M10811.47 1698.13v66.66M9931.47 1764.8v66.66M10371.47 1764.8v66.66M10811.47 1764.8v66.66M9931.47 1831.46v66.66M10371.47 1831.46v66.66M10811.47 1831.46v66.66M9931.47 1898.13v66.66M10371.47 1898.13v66.66M10811.47 1898.13v66.66M9931.47 1964.8v66.66M10371.47 1964.8v66.66M10811.47 1964.8v66.66M9931.47 1431.46h440M10371.47 1431.46h440M9931.47 1498.13h440M10371.47 1498.13h440M9931.47 1564.8h440M10371.47 1564.8h440M9931.47 1631.46h440M10371.47 1631.46h440M9931.47 1698.13h440M10371.47 1698.13h440M9931.47 1764.8h440M10371.47 1764.8h440M9931.47 1831.46h440M10371.47 1831.46h440M9931.47 1898.13h440M10371.47 1898.13h440M9931.47 1964.8h440M9931.47 2031.46h440M10371.47 1964.8h440M10371.47 2031.46h440" stroke="#333" fill="none"/><use xlink:href="#a" transform="matrix(1,0,0,1,9936.4668436194,1436.4581499644974) translate(145.74074074074073 35.16666666666667)"/><use xlink:href="#b" transform="matrix(1,0,0,1,10376.4668436194,1436.4581499644974) translate(160.55555555555554 35.16666666666667)"/><use xlink:href="#c" transform="matrix(1,0,0,1,9936.4668436194,1503.124816631164) translate(118.88888888888889 35.16666666666667)"/><use xlink:href="#b" transform="matrix(1,0,0,1,10376.4668436194,1503.124816631164) translate(160.55555555555554 35.16666666666667)"/><use xlink:href="#d" transform="matrix(1,0,0,1,9936.4668436194,1569.7914832978306) translate(144.72222222222223 35.16666666666667)"/><use xlink:href="#b" transform="matrix(1,0,0,1,10376.4668436194,1569.7914832978306) translate(160.55555555555554 35.16666666666667)"/><use xlink:href="#e" transform="matrix(1,0,0,1,9936.4668436194,1636.4581499644974) translate(155.92592592592592 35.16666666666667)"/><use xlink:href="#b" transform="matrix(1,0,0,1,10376.4668436194,1636.4581499644974) translate(160.55555555555554 35.16666666666667)"/><use xlink:href="#f" transform="matrix(1,0,0,1,9936.4668436194,1703.1248166311639) translate(179.9537037037037 35.16666666666667)"/><use xlink:href="#b" transform="matrix(1,0,0,1,10376.4668436194,1703.1248166311639) translate(160.55555555555554 35.16666666666667)"/><use xlink:href="#g" transform="matrix(1,0,0,1,9936.4668436194,1769.7914832978306) translate(117.08333333333334 35.16666666666667)"/><use xlink:href="#b" transform="matrix(1,0,0,1,10376.4668436194,1769.7914832978306) translate(160.55555555555554 35.16666666666667)"/><use xlink:href="#h" transform="matrix(1,0,0,1,9936.4668436194,1836.4581499644974) translate(184.49074074074073 35.16666666666667)"/><use xlink:href="#b" transform="matrix(1,0,0,1,10376.4668436194,1836.4581499644974) translate(160.55555555555554 35.16666666666667)"/><use xlink:href="#i" transform="matrix(1,0,0,1,9936.4668436194,1903.1248166311639) translate(159.58333333333334 35.16666666666667)"/><use xlink:href="#b" transform="matrix(1,0,0,1,10376.4668436194,1903.1248166311639) translate(160.55555555555554 35.16666666666667)"/><use xlink:href="#j" transform="matrix(1,0,0,1,9936.4668436194,1969.7914832978306) translate(180.83333333333331 35.16666666666667)"/><use xlink:href="#k" transform="matrix(1,0,0,1,10376.4668436194,1969.7914832978306) translate(131.80555555555554 35.16666666666667)"/><defs><path d="M114-157C55-157 80-60 75 0H25v-261h50l-1 109c12-26 28-41 61-42 86-1 58 113 63 194h-50c-7-57 23-157-34-157" id="l"/><path d="M85 4C-2 5 27-109 22-190h50c7 57-23 150 33 157 60-5 35-97 40-157h50l1 190h-47c-2-12 1-28-3-38-12 25-28 42-61 42" id="m"/><path d="M220-157c-53 9-28 100-34 157h-49v-107c1-27-5-49-29-50C55-147 81-57 75 0H25l-1-190h47c2 12-1 28 3 38 10-53 101-56 108 0 13-22 24-43 59-42 82 1 51 116 57 194h-49v-107c-1-25-5-48-29-50" id="n"/><path d="M25-224v-37h50v37H25zM25 0v-190h50V0H25" id="o"/><path d="M88-194c31-1 46 15 58 34l-1-101h50l1 261h-48c-2-10 0-23-3-31C134-8 116 4 84 4 32 4 16-41 15-95c0-56 19-97 73-99zm17 164c33 0 40-30 41-66 1-37-9-64-41-64s-38 30-39 65c0 43 13 65 39 65" id="p"/><path d="M115-3C79 11 28 4 28-45v-112H4v-33h27l15-45h31v45h36v33H77v99c-1 23 16 31 38 25v30" id="q"/><path d="M123 10C108 53 80 86 19 72V37c35 8 53-11 59-39L3-190h52l48 148c12-52 28-100 44-148h51" id="r"/><g id="a"><use transform="matrix(0.0925925925925926,0,0,0.0925925925925926,0,0)" xlink:href="#l"/><use transform="matrix(0.0925925925925926,0,0,0.0925925925925926,20.27777777777778,0)" xlink:href="#m"/><use transform="matrix(0.0925925925925926,0,0,0.0925925925925926,40.55555555555556,0)" xlink:href="#n"/><use transform="matrix(0.0925925925925926,0,0,0.0925925925925926,70.18518518518519,0)" xlink:href="#o"/><use transform="matrix(0.0925925925925926,0,0,0.0925925925925926,79.44444444444446,0)" xlink:href="#p"/><use transform="matrix(0.0925925925925926,0,0,0.0925925925925926,99.72222222222223,0)" xlink:href="#o"/><use transform="matrix(0.0925925925925926,0,0,0.0925925925925926,108.9814814814815,0)" xlink:href="#q"/><use transform="matrix(0.0925925925925926,0,0,0.0925925925925926,120.00000000000001,0)" xlink:href="#r"/></g><path d="M110-194c64 0 96 36 96 99 0 64-35 99-97 99-61 0-95-36-95-99 0-62 34-99 96-99zm-1 164c35 0 45-28 45-65 0-40-10-65-43-65-34 0-45 26-45 65 0 36 10 65 43 65" id="s"/><path d="M135-194c52 0 70 43 70 98 0 56-19 99-73 100-30 1-46-15-58-35L72 0H24l1-261h50v104c11-23 29-37 60-37zM114-30c31 0 40-27 40-66 0-37-7-63-39-63s-41 28-41 65c0 36 8 64 40 64" id="t"/><path d="M25 0v-261h50V0H25" id="u"/><path d="M185-48c-13 30-37 53-82 52C43 2 14-33 14-96s30-98 90-98c62 0 83 45 84 108H66c0 31 8 55 39 56 18 0 30-7 34-22zm-45-69c5-46-57-63-70-21-2 6-4 13-4 21h74" id="v"/><g id="b"><use transform="matrix(0.0925925925925926,0,0,0.0925925925925926,0,0)" xlink:href="#p"/><use transform="matrix(0.0925925925925926,0,0,0.0925925925925926,20.27777777777778,0)" xlink:href="#s"/><use transform="matrix(0.0925925925925926,0,0,0.0925925925925926,40.55555555555556,0)" xlink:href="#m"/><use transform="matrix(0.0925925925925926,0,0,0.0925925925925926,60.833333333333336,0)" xlink:href="#t"/><use transform="matrix(0.0925925925925926,0,0,0.0925925925925926,81.11111111111111,0)" xlink:href="#u"/><use transform="matrix(0.0925925925925926,0,0,0.0925925925925926,90.37037037037038,0)" xlink:href="#v"/></g><path d="M135-194c53 0 70 44 70 98 0 56-19 98-73 100-31 1-45-17-59-34 3 33 2 69 2 105H25l-1-265h48c2 10 0 23 3 31 11-24 29-35 60-35zM114-30c33 0 39-31 40-66 0-38-9-64-40-64-56 0-55 130 0 130" id="w"/><path d="M135-150c-39-12-60 13-60 57V0H25l-1-190h47c2 13-1 29 3 40 6-28 27-53 61-41v41" id="x"/><path d="M133-34C117-15 103 5 69 4 32 3 11-16 11-54c-1-60 55-63 116-61 1-26-3-47-28-47-18 1-26 9-28 27l-52-2c7-38 36-58 82-57s74 22 75 68l1 82c-1 14 12 18 25 15v27c-30 8-71 5-69-32zm-48 3c29 0 43-24 42-57-32 0-66-3-65 30 0 17 8 27 23 27" id="y"/><g id="c"><use transform="matrix(0.0925925925925926,0,0,0.0925925925925926,0,0)" xlink:href="#q"/><use transform="matrix(0.0925925925925926,0,0,0.0925925925925926,11.018518518518519,0)" xlink:href="#v"/><use transform="matrix(0.0925925925925926,0,0,0.0925925925925926,29.537037037037038,0)" xlink:href="#n"/><use transform="matrix(0.0925925925925926,0,0,0.0925925925925926,59.16666666666667,0)" xlink:href="#w"/><use transform="matrix(0.0925925925925926,0,0,0.0925925925925926,79.44444444444446,0)" xlink:href="#v"/><use transform="matrix(0.0925925925925926,0,0,0.0925925925925926,97.96296296296298,0)" xlink:href="#x"/><use transform="matrix(0.0925925925925926,0,0,0.0925925925925926,110.92592592592594,0)" xlink:href="#y"/><use transform="matrix(0.0925925925925926,0,0,0.0925925925925926,129.44444444444446,0)" xlink:href="#q"/><use transform="matrix(0.0925925925925926,0,0,0.0925925925925926,140.462962962963,0)" xlink:href="#m"/><use transform="matrix(0.0925925925925926,0,0,0.0925925925925926,160.74074074074076,0)" xlink:href="#x"/><use transform="matrix(0.0925925925925926,0,0,0.0925925925925926,173.70370370370372,0)" xlink:href="#v"/></g><path d="M137-138c1-29-70-34-71-4 15 46 118 7 119 86 1 83-164 76-172 9l43-7c4 19 20 25 44 25 33 8 57-30 24-41C81-84 22-81 20-136c-2-80 154-74 161-7" id="z"/><g id="d"><use transform="matrix(0.0925925925925926,0,0,0.0925925925925926,0,0)" xlink:href="#w"/><use transform="matrix(0.0925925925925926,0,0,0.0925925925925926,20.27777777777778,0)" xlink:href="#x"/><use transform="matrix(0.0925925925925926,0,0,0.0925925925925926,33.24074074074074,0)" xlink:href="#v"/><use transform="matrix(0.0925925925925926,0,0,0.0925925925925926,51.75925925925927,0)" xlink:href="#z"/><use transform="matrix(0.0925925925925926,0,0,0.0925925925925926,70.27777777777777,0)" xlink:href="#z"/><use transform="matrix(0.0925925925925926,0,0,0.0925925925925926,88.79629629629629,0)" xlink:href="#m"/><use transform="matrix(0.0925925925925926,0,0,0.0925925925925926,109.07407407407409,0)" xlink:href="#x"/><use transform="matrix(0.0925925925925926,0,0,0.0925925925925926,122.03703703703705,0)" xlink:href="#v"/></g><g id="e"><use transform="matrix(0.0925925925925926,0,0,0.0925925925925926,0,0)" xlink:href="#y"/><use transform="matrix(0.0925925925925926,0,0,0.0925925925925926,18.51851851851852,0)" xlink:href="#u"/><use transform="matrix(0.0925925925925926,0,0,0.0925925925925926,27.777777777777782,0)" xlink:href="#q"/><use transform="matrix(0.0925925925925926,0,0,0.0925925925925926,38.7962962962963,0)" xlink:href="#o"/><use transform="matrix(0.0925925925925926,0,0,0.0925925925925926,48.05555555555556,0)" xlink:href="#q"/><use transform="matrix(0.0925925925925926,0,0,0.0925925925925926,59.074074074074076,0)" xlink:href="#m"/><use transform="matrix(0.0925925925925926,0,0,0.0925925925925926,79.35185185185185,0)" xlink:href="#p"/><use transform="matrix(0.0925925925925926,0,0,0.0925925925925926,99.62962962962962,0)" xlink:href="#v"/></g><path d="M195-6C206 82 75 100 31 46c-4-6-6-13-8-21l49-6c3 16 16 24 34 25 40 0 42-37 40-79-11 22-30 35-61 35-53 0-70-43-70-97 0-56 18-96 73-97 30 0 46 14 59 34l2-30h47zm-90-29c32 0 41-27 41-63 0-35-9-62-40-62-32 0-39 29-40 63 0 36 9 62 39 62" id="A"/><g id="f"><use transform="matrix(0.0925925925925926,0,0,0.0925925925925926,0,0)" xlink:href="#u"/><use transform="matrix(0.0925925925925926,0,0,0.0925925925925926,9.25925925925926,0)" xlink:href="#o"/><use transform="matrix(0.0925925925925926,0,0,0.0925925925925926,18.51851851851852,0)" xlink:href="#A"/><use transform="matrix(0.0925925925925926,0,0,0.0925925925925926,38.7962962962963,0)" xlink:href="#l"/><use transform="matrix(0.0925925925925926,0,0,0.0925925925925926,59.074074074074076,0)" xlink:href="#q"/></g><path d="M230 0l2-204L168 0h-37L68-204 70 0H24v-248h70l56 185 57-185h69V0h-46" id="B"/><g id="g"><use transform="matrix(0.0925925925925926,0,0,0.0925925925925926,0,0)" xlink:href="#z"/><use transform="matrix(0.0925925925925926,0,0,0.0925925925925926,18.51851851851852,0)" xlink:href="#s"/><use transform="matrix(0.0925925925925926,0,0,0.0925925925925926,38.7962962962963,0)" xlink:href="#o"/><use transform="matrix(0.0925925925925926,0,0,0.0925925925925926,48.05555555555556,0)" xlink:href="#u"/><use transform="matrix(0.0925925925925926,0,0,0.0925925925925926,57.314814814814824,0)" xlink:href="#B"/><use transform="matrix(0.0925925925925926,0,0,0.0925925925925926,85,0)" xlink:href="#s"/><use transform="matrix(0.0925925925925926,0,0,0.0925925925925926,105.27777777777777,0)" xlink:href="#o"/><use transform="matrix(0.0925925925925926,0,0,0.0925925925925926,114.53703703703705,0)" xlink:href="#z"/><use transform="matrix(0.0925925925925926,0,0,0.0925925925925926,133.05555555555554,0)" xlink:href="#q"/><use transform="matrix(0.0925925925925926,0,0,0.0925925925925926,144.07407407407408,0)" xlink:href="#m"/><use transform="matrix(0.0925925925925926,0,0,0.0925925925925926,164.35185185185185,0)" xlink:href="#x"/><use transform="matrix(0.0925925925925926,0,0,0.0925925925925926,177.3148148148148,0)" xlink:href="#v"/></g><path d="M135-194c87-1 58 113 63 194h-50c-7-57 23-157-34-157-59 0-34 97-39 157H25l-1-190h47c2 12-1 28 3 38 12-26 28-41 61-42" id="C"/><g id="h"><use transform="matrix(0.0925925925925926,0,0,0.0925925925925926,0,0)" xlink:href="#x"/><use transform="matrix(0.0925925925925926,0,0,0.0925925925925926,12.962962962962964,0)" xlink:href="#y"/><use transform="matrix(0.0925925925925926,0,0,0.0925925925925926,31.48148148148148,0)" xlink:href="#o"/><use transform="matrix(0.0925925925925926,0,0,0.0925925925925926,40.74074074074074,0)" xlink:href="#C"/></g><g id="i"><use transform="matrix(0.0925925925925926,0,0,0.0925925925925926,0,0)" xlink:href="#t"/><use transform="matrix(0.0925925925925926,0,0,0.0925925925925926,20.27777777777778,0)" xlink:href="#y"/><use transform="matrix(0.0925925925925926,0,0,0.0925925925925926,38.7962962962963,0)" xlink:href="#q"/><use transform="matrix(0.0925925925925926,0,0,0.0925925925925926,49.81481481481482,0)" xlink:href="#q"/><use transform="matrix(0.0925925925925926,0,0,0.0925925925925926,60.833333333333336,0)" xlink:href="#v"/><use transform="matrix(0.0925925925925926,0,0,0.0925925925925926,79.35185185185185,0)" xlink:href="#x"/><use transform="matrix(0.0925925925925926,0,0,0.0925925925925926,92.31481481481481,0)" xlink:href="#r"/></g><g id="j"><use transform="matrix(0.0925925925925926,0,0,0.0925925925925926,0,0)" xlink:href="#p"/><use transform="matrix(0.0925925925925926,0,0,0.0925925925925926,20.27777777777778,0)" xlink:href="#y"/><use transform="matrix(0.0925925925925926,0,0,0.0925925925925926,38.7962962962963,0)" xlink:href="#q"/><use transform="matrix(0.0925925925925926,0,0,0.0925925925925926,49.81481481481482,0)" xlink:href="#v"/></g><g id="k"><use transform="matrix(0.0925925925925926,0,0,0.0925925925925926,0,0)" xlink:href="#q"/><use transform="matrix(0.0925925925925926,0,0,0.0925925925925926,11.018518518518519,0)" xlink:href="#o"/><use transform="matrix(0.0925925925925926,0,0,0.0925925925925926,20.27777777777778,0)" xlink:href="#n"/><use transform="matrix(0.0925925925925926,0,0,0.0925925925925926,49.90740740740741,0)" xlink:href="#v"/><use transform="matrix(0.0925925925925926,0,0,0.0925925925925926,68.42592592592592,0)" xlink:href="#z"/><use transform="matrix(0.0925925925925926,0,0,0.0925925925925926,86.94444444444444,0)" xlink:href="#q"/><use transform="matrix(0.0925925925925926,0,0,0.0925925925925926,97.96296296296298,0)" xlink:href="#y"/><use transform="matrix(0.0925925925925926,0,0,0.0925925925925926,116.48148148148147,0)" xlink:href="#n"/><use transform="matrix(0.0925925925925926,0,0,0.0925925925925926,146.11111111111111,0)" xlink:href="#w"/></g></defs></g></svg>