<svg xmlns="http://www.w3.org/2000/svg" xmlns:xlink="http://www.w3.org/1999/xlink" xmlns:lucid="lucid" width="3487.2" height="1848.89"><g transform="translate(-8520 -1960.0000000000002)" lucid:page-tab-id="qj7HPlkJPpr1"><path d="M0 0h18359.82v8300H0z" fill="#fff"/><path d="M9647.2 1980h2340v1808.9h-2340z" stroke="#333" fill="#fbf0ff"/><path d="M9748.67 2088.9h2198.53v780H9748.67z" stroke="#333" fill="#e3fae3"/><path d="M9047.2 3468.9h479.2v235.6h-479.2z" fill="none"/><use xlink:href="#a" transform="matrix(1,0,0,1,9047.2,3468.893682727533) translate(27.59259259259261 35.55555555555556)"/><use xlink:href="#b" transform="matrix(1,0,0,1,9047.2,3468.893682727533) translate(70.30864197530866 35.55555555555556)"/><use xlink:href="#c" transform="matrix(1,0,0,1,9047.2,3468.893682727533) translate(119.69135802469137 35.55555555555556)"/><use xlink:href="#d" transform="matrix(1,0,0,1,9047.2,3468.893682727533) translate(228.08641975308643 35.55555555555556)"/><use xlink:href="#e" transform="matrix(1,0,0,1,9047.2,3468.893682727533) translate(292.1604938271605 35.55555555555556)"/><use xlink:href="#f" transform="matrix(1,0,0,1,9047.2,3468.893682727533) translate(8.271604938271594 88.88888888888889)"/><use xlink:href="#g" transform="matrix(1,0,0,1,9047.2,3468.893682727533) translate(84.69135802469135 88.88888888888889)"/><use xlink:href="#h" transform="matrix(1,0,0,1,9047.2,3468.893682727533) translate(227.53086419753083 88.88888888888889)"/><use xlink:href="#i" transform="matrix(1,0,0,1,9047.2,3468.893682727533) translate(276.91358024691357 88.88888888888889)"/><use xlink:href="#j" transform="matrix(1,0,0,1,9047.2,3468.893682727533) translate(326.2962962962963 88.88888888888889)"/><use xlink:href="#k" transform="matrix(1,0,0,1,9047.2,3468.893682727533) translate(77.40740740740742 142.22222222222223)"/><use xlink:href="#l" transform="matrix(1,0,0,1,9047.2,3468.893682727533) translate(143.82716049382717 142.22222222222223)"/><use xlink:href="#m" transform="matrix(1,0,0,1,9047.2,3468.893682727533) translate(259.7530864197531 142.22222222222223)"/><use xlink:href="#n" transform="matrix(1,0,0,1,9047.2,3468.893682727533) translate(296.7901234567901 142.22222222222223)"/><use xlink:href="#o" transform="matrix(1,0,0,1,9047.2,3468.893682727533) translate(10.864197530864203 195.55555555555554)"/><use xlink:href="#p" transform="matrix(1,0,0,1,9047.2,3468.893682727533) translate(217.7777777777778 195.55555555555554)"/><use xlink:href="#q" transform="matrix(1,0,0,1,9047.2,3468.893682727533) translate(390.3703703703704 195.55555555555554)"/><use xlink:href="#r" transform="matrix(1,0,0,1,9047.2,3468.893682727533) translate(220.30864197530863 248.8888888888889)"/><path d="M10647.2 2096.86h240v60h-240z" fill="none"/><use xlink:href="#s" transform="matrix(1,0,0,1,10647.2,2096.8634916315414) translate(34.47993827160498 36.71111111111111)"/><path d="M9207.2 2008.9h367.2v207.6h-367.2z" fill="none"/><use xlink:href="#t" transform="matrix(1,0,0,1,9207.2,2008.893682727533) translate(18.91203703703721 85.24444444444447)"/><use xlink:href="#u" transform="matrix(1,0,0,1,9207.2,2008.893682727533) translate(185.23734567901235 85.24444444444447)"/><use xlink:href="#v" transform="matrix(1,0,0,1,9207.2,2008.893682727533) translate(40.98888888888905 141.51111111111106)"/><path d="M9180 2156.86h367.2v207.6H9180z" fill="none"/><use xlink:href="#w" transform="matrix(1,0,0,1,9180,2156.8634916315414) translate(69.51296296296309 85.24444444444447)"/><use xlink:href="#x" transform="matrix(1,0,0,1,9180,2156.8634916315414) translate(82.53765432098777 85.24444444444447)"/><use xlink:href="#y" transform="matrix(1,0,0,1,9180,2156.8634916315414) translate(243.91358024691354 85.24444444444447)"/><use xlink:href="#z" transform="matrix(1,0,0,1,9180,2156.8634916315414) translate(107.28456790123465 141.51111111111106)"/><path d="M9740 2131.46h240v60h-240z" fill="none"/><use xlink:href="#A" transform="matrix(1,0,0,1,9740,2131.4581499644974) translate(65.15432098765432 34.44444444444444)"/><path d="M9790.73 2184.83h1038.54v584.06H9790.73z" stroke="#333" fill="#fcfcca"/><path d="M9860 2208h440v51h-440zM10300 2208h440v51h-440zM9860 2259h440v66.67h-440zM10300 2259h440v66.67h-440zM9860 2325.67h440v66.66h-440zM10300 2325.67h440v66.66h-440zM9860 2392.33h440V2459h-440zM10300 2392.33h440V2459h-440zM9860 2459h440v66.67h-440zM10300 2459h440v66.67h-440zM9860 2525.67h440v66.66h-440zM10300 2525.67h440v66.66h-440zM9860 2592.33h440V2659h-440zM10300 2592.33h440V2659h-440zM9860 2659h440v66.67h-440zM10300 2659h440v66.67h-440z" fill="#fff"/><path d="M9860 2208v51M10300 2208v51M10740 2208v51M9860 2259v66.67M10300 2259v66.67M10740 2259v66.67M9860 2325.67v66.66M10300 2325.67v66.66M10740 2325.67v66.66M9860 2392.33V2459M10300 2392.33V2459M10740 2392.33V2459M9860 2459v66.67M10300 2459v66.67M10740 2459v66.67M9860 2525.67v66.66M10300 2525.67v66.66M10740 2525.67v66.66M9860 2592.33V2659M10300 2592.33V2659M10740 2592.33V2659M9860 2659v66.67M10300 2659v66.67M10740 2659v66.67M9860 2208h440M10300 2208h440M9860 2259h440M10300 2259h440M9860 2325.67h440M10300 2325.67h440M9860 2392.33h440M10300 2392.33h440M9860 2459h440M10300 2459h440M9860 2525.67h440M10300 2525.67h440M9860 2592.33h440M10300 2592.33h440M9860 2659h440M9860 2725.67h440M10300 2659h440M10300 2725.67h440" stroke="#333" fill="none"/><use xlink:href="#B" transform="matrix(1,0,0,1,9865,2213) translate(162.64999999999998 24.1)"/><use xlink:href="#C" transform="matrix(1,0,0,1,10305,2213) translate(167.575 24.1)"/><use xlink:href="#D" transform="matrix(1,0,0,1,10305,2213) translate(212.475 24.1)"/><use xlink:href="#E" transform="matrix(1,0,0,1,10305,2213) translate(256.425 24.1)"/><use xlink:href="#F" transform="matrix(1,0,0,1,9865,2264) translate(147.64999999999998 32.1)"/><use xlink:href="#C" transform="matrix(1,0,0,1,10305,2264) translate(167.575 32.1)"/><use xlink:href="#D" transform="matrix(1,0,0,1,10305,2264) translate(212.475 32.1)"/><use xlink:href="#E" transform="matrix(1,0,0,1,10305,2264) translate(256.425 32.1)"/><use xlink:href="#G" transform="matrix(1,0,0,1,9865,2330.6666666666665) translate(161.125 32.1)"/><use xlink:href="#C" transform="matrix(1,0,0,1,10305,2330.6666666666665) translate(167.575 32.1)"/><use xlink:href="#D" transform="matrix(1,0,0,1,10305,2330.6666666666665) translate(212.475 32.1)"/><use xlink:href="#E" transform="matrix(1,0,0,1,10305,2330.6666666666665) translate(256.425 32.1)"/><use xlink:href="#H" transform="matrix(1,0,0,1,9865,2397.3333333333335) translate(167.125 32.1)"/><use xlink:href="#C" transform="matrix(1,0,0,1,10305,2397.3333333333335) translate(167.575 32.1)"/><use xlink:href="#D" transform="matrix(1,0,0,1,10305,2397.3333333333335) translate(212.475 32.1)"/><use xlink:href="#E" transform="matrix(1,0,0,1,10305,2397.3333333333335) translate(256.425 32.1)"/><use xlink:href="#I" transform="matrix(1,0,0,1,9865,2464) translate(179.625 32.1)"/><use xlink:href="#C" transform="matrix(1,0,0,1,10305,2464) translate(167.575 32.1)"/><use xlink:href="#D" transform="matrix(1,0,0,1,10305,2464) translate(212.475 32.1)"/><use xlink:href="#E" transform="matrix(1,0,0,1,10305,2464) translate(256.425 32.1)"/><use xlink:href="#J" transform="matrix(1,0,0,1,9865,2530.6666666666665) translate(148.2 32.1)"/><use xlink:href="#C" transform="matrix(1,0,0,1,10305,2530.6666666666665) translate(167.575 32.1)"/><use xlink:href="#D" transform="matrix(1,0,0,1,10305,2530.6666666666665) translate(212.475 32.1)"/><use xlink:href="#E" transform="matrix(1,0,0,1,10305,2530.6666666666665) translate(256.425 32.1)"/><use xlink:href="#K" transform="matrix(1,0,0,1,9865,2597.333333333333) translate(181.125 32.1)"/><use xlink:href="#C" transform="matrix(1,0,0,1,10305,2597.333333333333) translate(167.575 32.1)"/><use xlink:href="#D" transform="matrix(1,0,0,1,10305,2597.333333333333) translate(212.475 32.1)"/><use xlink:href="#E" transform="matrix(1,0,0,1,10305,2597.333333333333) translate(256.425 32.1)"/><use xlink:href="#L" transform="matrix(1,0,0,1,9865,2664) translate(168.6 32.1)"/><use xlink:href="#C" transform="matrix(1,0,0,1,10305,2664) translate(167.575 32.1)"/><use xlink:href="#D" transform="matrix(1,0,0,1,10305,2664) translate(212.475 32.1)"/><use xlink:href="#E" transform="matrix(1,0,0,1,10305,2664) translate(256.425 32.1)"/><path d="M10847.2 2131.46h240v60h-240z" fill="none"/><use xlink:href="#M" transform="matrix(1,0,0,1,10847.2,2131.4581499644974) translate(38.48302469135804 34.48888888888889)"/><use xlink:href="#N" transform="matrix(1,0,0,1,10847.2,2131.4581499644974) translate(194.09783950617282 34.48888888888889)"/><path d="M10888.67 2171.46h1027.63v647.27h-1027.63z" stroke="#333" fill="#fcfcca"/><path d="M11018.67 2191.46h440v66.66h-440zM11458.67 2191.46h440v66.66h-440zM11018.67 2258.13h440v66.66h-440zM11458.67 2258.13h440v66.66h-440zM11018.67 2324.8h440v66.66h-440zM11458.67 2324.8h440v66.66h-440zM11018.67 2391.46h440v66.66h-440zM11458.67 2391.46h440v66.66h-440zM11018.67 2458.13h440v66.66h-440zM11458.67 2458.13h440v66.66h-440zM11018.67 2524.8h440v66.66h-440zM11458.67 2524.8h440v66.66h-440zM11018.67 2591.46h440v66.66h-440zM11458.67 2591.46h440v66.66h-440zM11018.67 2658.13h440v66.66h-440zM11458.67 2658.13h440v66.66h-440zM11018.67 2724.8h440v66.66h-440zM11458.67 2724.8h440v66.66h-440z" fill="#fff"/><path d="M11018.67 2191.46v66.66M11458.67 2191.46v66.66M11898.67 2191.46v66.66M11018.67 2258.13v66.66M11458.67 2258.13v66.66M11898.67 2258.13v66.66M11018.67 2324.8v66.66M11458.67 2324.8v66.66M11898.67 2324.8v66.66M11018.67 2391.46v66.66M11458.67 2391.46v66.66M11898.67 2391.46v66.66M11018.67 2458.13v66.66M11458.67 2458.13v66.66M11898.67 2458.13v66.66M11018.67 2524.8v66.66M11458.67 2524.8v66.66M11898.67 2524.8v66.66M11018.67 2591.46v66.66M11458.67 2591.46v66.66M11898.67 2591.46v66.66M11018.67 2658.13v66.66M11458.67 2658.13v66.66M11898.67 2658.13v66.66M11018.67 2724.8v66.66M11458.67 2724.8v66.66M11898.67 2724.8v66.66M11018.67 2191.46h440M11458.67 2191.46h440M11018.67 2258.13h440M11458.67 2258.13h440M11018.67 2324.8h440M11458.67 2324.8h440M11018.67 2391.46h440M11458.67 2391.46h440M11018.67 2458.13h440M11458.67 2458.13h440M11018.67 2524.8h440M11458.67 2524.8h440M11018.67 2591.46h440M11458.67 2591.46h440M11018.67 2658.13h440M11458.67 2658.13h440M11018.67 2724.8h440M11018.67 2791.46h440M11458.67 2724.8h440M11458.67 2791.46h440" stroke="#333" fill="none"/><use xlink:href="#O" transform="matrix(1,0,0,1,11023.666843619401,2196.4581499644974) translate(181.575 32.1)"/><use xlink:href="#P" transform="matrix(1,0,0,1,11463.666843619401,2196.4581499644974) translate(188.025 32.1)"/><use xlink:href="#Q" transform="matrix(1,0,0,1,11023.666843619401,2263.124816631164) translate(166.575 32.1)"/><use xlink:href="#P" transform="matrix(1,0,0,1,11463.666843619401,2263.124816631164) translate(188.025 32.1)"/><use xlink:href="#R" transform="matrix(1,0,0,1,11023.666843619401,2329.791483297831) translate(180.05 32.1)"/><use xlink:href="#P" transform="matrix(1,0,0,1,11463.666843619401,2329.791483297831) translate(188.025 32.1)"/><use xlink:href="#S" transform="matrix(1,0,0,1,11023.666843619401,2396.4581499644974) translate(186.05 32.1)"/><use xlink:href="#P" transform="matrix(1,0,0,1,11463.666843619401,2396.4581499644974) translate(188.025 32.1)"/><use xlink:href="#T" transform="matrix(1,0,0,1,11023.666843619401,2463.124816631164) translate(198.55 32.1)"/><use xlink:href="#P" transform="matrix(1,0,0,1,11463.666843619401,2463.124816631164) translate(188.025 32.1)"/><use xlink:href="#U" transform="matrix(1,0,0,1,11023.666843619401,2529.7914832978304) translate(167.125 32.1)"/><use xlink:href="#P" transform="matrix(1,0,0,1,11463.666843619401,2529.7914832978304) translate(188.025 32.1)"/><use xlink:href="#V" transform="matrix(1,0,0,1,11023.666843619401,2596.4581499644974) translate(200.05 32.1)"/><use xlink:href="#P" transform="matrix(1,0,0,1,11463.666843619401,2596.4581499644974) translate(188.025 32.1)"/><use xlink:href="#W" transform="matrix(1,0,0,1,11023.666843619401,2663.124816631164) translate(187.525 32.1)"/><use xlink:href="#P" transform="matrix(1,0,0,1,11463.666843619401,2663.124816631164) translate(188.025 32.1)"/><use xlink:href="#X" transform="matrix(1,0,0,1,11023.666843619401,2729.7914832978304) translate(197.5 32.1)"/><use xlink:href="#Y" transform="matrix(1,0,0,1,11463.666843619401,2729.7914832978304) translate(152.6 32.1)"/><use xlink:href="#Z" transform="matrix(1,0,0,1,11463.666843619401,2729.7914832978304) translate(233.5 32.1)"/><path d="M10827.2 2328.13h240v60h-240z" fill="none"/><use xlink:href="#aa" transform="matrix(1,0,0,1,10827.2,2328.1248166311643) translate(69.07499999999999 33.6)"/><path d="M8880 2779.43h367.2v207.6H8880z" fill="none"/><use xlink:href="#ab" transform="matrix(1,0,0,1,8880,2779.4256588404523) translate(-3.034567901234368 37.51111111111107)"/><use xlink:href="#ac" transform="matrix(1,0,0,1,8880,2779.4256588404523) translate(117.63919753086428 93.77777777777769)"/><use xlink:href="#ad" transform="matrix(1,0,0,1,8880,2779.4256588404523) translate(185.23734567901232 93.77777777777769)"/><use xlink:href="#ae" transform="matrix(1,0,0,1,8880,2779.4256588404523) translate(21.45185185185207 150.04444444444428)"/><use xlink:href="#af" transform="matrix(1,0,0,1,8880,2779.4256588404523) translate(291.97469135802453 150.04444444444428)"/><use xlink:href="#ag" transform="matrix(1,0,0,1,8880,2779.4256588404523) translate(81.30030864197543 206.3111111111109)"/><use xlink:href="#ah" transform="matrix(1,0,0,1,8880,2779.4256588404523) translate(133.39907407407412 206.3111111111109)"/><path d="M8540 2904.16h367.2v207.6H8540z" fill="none"/><use xlink:href="#ai" transform="matrix(1,0,0,1,8540,2904.1596707839926) translate(150.20092592592596 113.37777777777777)"/><path d="M9180 2929.5h367.2v207.6H9180z" fill="none"/><use xlink:href="#aj" transform="matrix(1,0,0,1,9180,2929.5063172724667) translate(137.11111111111117 113.37777777777777)"/><path d="M8860 3038.5h367.2v207.6H8860z" fill="none"/><use xlink:href="#ak" transform="matrix(1,0,0,1,8860,3038.5088847183993) translate(96.7996913580248 113.37777777777777)"/><path d="M9740 2960h2108.67v780H9740z" stroke="#333" fill="#e3fae3"/><path d="M10607.2 2008.9h240v60h-240z" fill="none"/><use xlink:href="#al" transform="matrix(1,0,0,1,10607.2,2008.8936827275331) translate(82.76265432098768 36.71111111111111)"/><path d="M10507.2 2987.03h360v41.86h-360z" fill="none"/><use xlink:href="#am" transform="matrix(1,0,0,1,10507.2,2987.0256588404527) translate(73.5472222222223 30.399999999999984)"/><use xlink:href="#an" transform="matrix(1,0,0,1,10507.2,2987.0256588404527) translate(273.8916666666666 30.399999999999984)"/><path d="M9801.47 3051.76H11540V3660H9801.47z" stroke="#333" fill="#fcfcca"/><path d="M9800 3051.76h349.27v60H9800z" fill="none"/><use xlink:href="#ao" transform="matrix(1,0,0,1,9800,3051.759670783993) translate(30.360185185185202 35.37777777777778)"/><use xlink:href="#ap" transform="matrix(1,0,0,1,9800,3051.759670783993) translate(310.75154320987656 35.37777777777778)"/><path d="M10240 3080h610v62.15h-610zM10850 3080h610v62.15h-610zM10240 3142.15h610v62.14h-610zM10850 3142.15h610v62.14h-610zM10240 3204.3h610v62.14h-610zM10850 3204.3h610v62.14h-610zM10240 3266.44h610v62.14h-610zM10850 3266.44h610v62.14h-610zM10240 3328.58h610v62.15h-610zM10850 3328.58h610v62.15h-610zM10240 3390.73h610v62.14h-610zM10850 3390.73h610v62.14h-610zM10240 3452.88h610V3515h-610zM10850 3452.88h610V3515h-610zM10240 3515.02h610v62.15h-610zM10850 3515.02h610v62.15h-610zM10240 3577.17h610V3620h-610zM10850 3577.17h610V3620h-610z" fill="#fff"/><path d="M10240 3080v62.15M10850 3080v62.15M11460 3080v62.15M10240 3142.15v62.14M10850 3142.15v62.14M11460 3142.15v62.14M10240 3204.3v62.14M10850 3204.3v62.14M11460 3204.3v62.14M10240 3266.44v62.14M10850 3266.44v62.14M11460 3266.44v62.14M10240 3328.58v62.15M10850 3328.58v62.15M11460 3328.58v62.15M10240 3390.73v62.14M10850 3390.73v62.14M11460 3390.73v62.14M10240 3452.88V3515M10850 3452.88V3515M11460 3452.88V3515M10240 3515.02v62.15M10850 3515.02v62.15M11460 3515.02v62.15M10240 3577.17V3620M10850 3577.17V3620M11460 3577.17V3620M10240 3080h610M10850 3080h610M10240 3142.15h610M10850 3142.15h610M10240 3204.3h610M10850 3204.3h610M10240 3266.44h610M10850 3266.44h610M10240 3328.58h610M10850 3328.58h610M10240 3390.73h610M10850 3390.73h610M10240 3452.88h610M10850 3452.88h610M10240 3515.02h610M10850 3515.02h610M10240 3577.17h610M10240 3620h610M10850 3577.17h610M10850 3620h610" stroke="#333" fill="none"/><g><use xlink:href="#O" transform="matrix(1,0,0,1,10245,3085) translate(266.575 30.1)"/></g><g><use xlink:href="#P" transform="matrix(1,0,0,1,10855,3085) translate(273.025 30.1)"/></g><g><use xlink:href="#Q" transform="matrix(1,0,0,1,10245,3147.145913251135) translate(251.575 30.1)"/></g><g><use xlink:href="#P" transform="matrix(1,0,0,1,10855,3147.145913251135) translate(273.025 30.1)"/></g><g><use xlink:href="#R" transform="matrix(1,0,0,1,10245,3209.2918265022704) translate(265.05 30.1)"/></g><g><use xlink:href="#P" transform="matrix(1,0,0,1,10855,3209.2918265022704) translate(273.025 30.1)"/></g><g><use xlink:href="#S" transform="matrix(1,0,0,1,10245,3271.4377397534054) translate(271.05 30.1)"/></g><g><use xlink:href="#P" transform="matrix(1,0,0,1,10855,3271.4377397534054) translate(273.025 30.1)"/></g><g><use xlink:href="#T" transform="matrix(1,0,0,1,10245,3333.5836530045403) translate(283.55 30.1)"/></g><g><use xlink:href="#P" transform="matrix(1,0,0,1,10855,3333.5836530045403) translate(273.025 30.1)"/></g><g><use xlink:href="#U" transform="matrix(1,0,0,1,10245,3395.7295662556758) translate(252.125 30.1)"/></g><g><use xlink:href="#P" transform="matrix(1,0,0,1,10855,3395.7295662556758) translate(273.025 30.1)"/></g><g><use xlink:href="#V" transform="matrix(1,0,0,1,10245,3457.8754795068107) translate(285.05 30.1)"/></g><g><use xlink:href="#P" transform="matrix(1,0,0,1,10855,3457.8754795068107) translate(273.025 30.1)"/></g><g><use xlink:href="#W" transform="matrix(1,0,0,1,10245,3520.0213927579457) translate(272.525 30.1)"/></g><g><use xlink:href="#P" transform="matrix(1,0,0,1,10855,3520.0213927579457) translate(273.025 30.1)"/></g><g><use xlink:href="#X" transform="matrix(1,0,0,1,10245,3582.167306009081) translate(282.5 20.1)"/></g><g><use xlink:href="#Y" transform="matrix(1,0,0,1,10855,3582.167306009081) translate(237.6 20.1)"/><use xlink:href="#Z" transform="matrix(1,0,0,1,10855,3582.167306009081) translate(318.5 20.1)"/></g><defs><path fill="#333" d="M199 0l-22-63H83L61 0H9l90-248h61L250 0h-51zm-33-102l-36-108c-10 38-24 72-36 108h72" id="aq"/><use transform="matrix(0.12345679012345678,0,0,0.12345679012345678,0,0)" xlink:href="#aq" id="a"/><path fill="#333" d="M25 0v-261h50V0H25" id="ar"/><path fill="#333" d="M133-34C117-15 103 5 69 4 32 3 11-16 11-54c-1-60 55-63 116-61 1-26-3-47-28-47-18 1-26 9-28 27l-52-2c7-38 36-58 82-57s74 22 75 68l1 82c-1 14 12 18 25 15v27c-30 8-71 5-69-32zm-48 3c29 0 43-24 42-57-32 0-66-3-65 30 0 17 8 27 23 27" id="as"/><g id="b"><use transform="matrix(0.12345679012345678,0,0,0.12345679012345678,0,0)" xlink:href="#ar"/><use transform="matrix(0.12345679012345678,0,0,0.12345679012345678,12.345679012345679,0)" xlink:href="#as"/></g><path fill="#333" d="M114-157C55-157 80-60 75 0H25v-261h50l-1 109c12-26 28-41 61-42 86-1 58 113 63 194h-50c-7-57 23-157-34-157" id="at"/><path fill="#333" d="M110-194c64 0 96 36 96 99 0 64-35 99-97 99-61 0-95-36-95-99 0-62 34-99 96-99zm-1 164c35 0 45-28 45-65 0-40-10-65-43-65-34 0-45 26-45 65 0 36 10 65 43 65" id="au"/><path fill="#333" d="M135-150c-39-12-60 13-60 57V0H25l-1-190h47c2 13-1 29 3 40 6-28 27-53 61-41v41" id="av"/><g id="c"><use transform="matrix(0.12345679012345678,0,0,0.12345679012345678,0,0)" xlink:href="#at"/><use transform="matrix(0.12345679012345678,0,0,0.12345679012345678,27.037037037037035,0)" xlink:href="#au"/><use transform="matrix(0.12345679012345678,0,0,0.12345679012345678,54.07407407407407,0)" xlink:href="#av"/><use transform="matrix(0.12345679012345678,0,0,0.12345679012345678,71.35802469135803,0)" xlink:href="#as"/></g><path fill="#333" d="M88-194c31-1 46 15 58 34l-1-101h50l1 261h-48c-2-10 0-23-3-31C134-8 116 4 84 4 32 4 16-41 15-95c0-56 19-97 73-99zm17 164c33 0 40-30 41-66 1-37-9-64-41-64s-38 30-39 65c0 43 13 65 39 65" id="aw"/><path fill="#333" d="M185-48c-13 30-37 53-82 52C43 2 14-33 14-96s30-98 90-98c62 0 83 45 84 108H66c0 31 8 55 39 56 18 0 30-7 34-22zm-45-69c5-46-57-63-70-21-2 6-4 13-4 21h74" id="ax"/><g id="d"><use transform="matrix(0.12345679012345678,0,0,0.12345679012345678,0,0)" xlink:href="#aw"/><use transform="matrix(0.12345679012345678,0,0,0.12345679012345678,27.037037037037035,0)" xlink:href="#ax"/></g><path fill="#333" d="M220-157c-53 9-28 100-34 157h-49v-107c1-27-5-49-29-50C55-147 81-57 75 0H25l-1-190h47c2 12-1 28 3 38 10-53 101-56 108 0 13-22 24-43 59-42 82 1 51 116 57 194h-49v-107c-1-25-5-48-29-50" id="ay"/><path fill="#333" d="M135-194c87-1 58 113 63 194h-50c-7-57 23-157-34-157-59 0-34 97-39 157H25l-1-190h47c2 12-1 28 3 38 12-26 28-41 61-42" id="az"/><g id="e"><use transform="matrix(0.12345679012345678,0,0,0.12345679012345678,0,0)" xlink:href="#ay"/><use transform="matrix(0.12345679012345678,0,0,0.12345679012345678,39.50617283950617,0)" xlink:href="#as"/><use transform="matrix(0.12345679012345678,0,0,0.12345679012345678,64.19753086419753,0)" xlink:href="#az"/><use transform="matrix(0.12345679012345678,0,0,0.12345679012345678,91.23456790123457,0)" xlink:href="#aw"/><use transform="matrix(0.12345679012345678,0,0,0.12345679012345678,118.27160493827161,0)" xlink:href="#as"/><use transform="matrix(0.12345679012345678,0,0,0.12345679012345678,142.96296296296296,0)" xlink:href="#av"/></g><path fill="#333" d="M137-138c1-29-70-34-71-4 15 46 118 7 119 86 1 83-164 76-172 9l43-7c4 19 20 25 44 25 33 8 57-30 24-41C81-84 22-81 20-136c-2-80 154-74 161-7" id="aA"/><g id="f"><use transform="matrix(0.12345679012345678,0,0,0.12345679012345678,0,0)" xlink:href="#ar"/><use transform="matrix(0.12345679012345678,0,0,0.12345679012345678,12.345679012345679,0)" xlink:href="#au"/><use transform="matrix(0.12345679012345678,0,0,0.12345679012345678,39.382716049382715,0)" xlink:href="#aA"/></g><path fill="#333" d="M115-3C79 11 28 4 28-45v-112H4v-33h27l15-45h31v45h36v33H77v99c-1 23 16 31 38 25v30" id="aB"/><path fill="#333" d="M76-54c-1 42 2 86-19 110H24C36 42 46 24 48 0H25v-54h51" id="aC"/><g id="g"><use transform="matrix(0.12345679012345678,0,0,0.12345679012345678,0,0)" xlink:href="#aw"/><use transform="matrix(0.12345679012345678,0,0,0.12345679012345678,27.037037037037035,0)" xlink:href="#as"/><use transform="matrix(0.12345679012345678,0,0,0.12345679012345678,51.72839506172839,0)" xlink:href="#aB"/><use transform="matrix(0.12345679012345678,0,0,0.12345679012345678,66.41975308641975,0)" xlink:href="#au"/><use transform="matrix(0.12345679012345678,0,0,0.12345679012345678,93.45679012345678,0)" xlink:href="#aA"/><use transform="matrix(0.12345679012345678,0,0,0.12345679012345678,118.14814814814814,0)" xlink:href="#aC"/></g><path fill="#333" d="M25-224v-37h50v37H25zM25 0v-190h50V0H25" id="aD"/><g id="h"><use transform="matrix(0.12345679012345678,0,0,0.12345679012345678,0,0)" xlink:href="#aA"/><use transform="matrix(0.12345679012345678,0,0,0.12345679012345678,24.691358024691358,0)" xlink:href="#aD"/></g><g id="i"><use transform="matrix(0.12345679012345678,0,0,0.12345679012345678,0,0)" xlink:href="#ax"/><use transform="matrix(0.12345679012345678,0,0,0.12345679012345678,24.691358024691358,0)" xlink:href="#ar"/></g><g id="j"><use transform="matrix(0.12345679012345678,0,0,0.12345679012345678,0,0)" xlink:href="#aA"/><use transform="matrix(0.12345679012345678,0,0,0.12345679012345678,24.691358024691358,0)" xlink:href="#ax"/><use transform="matrix(0.12345679012345678,0,0,0.12345679012345678,49.382716049382715,0)" xlink:href="#az"/><use transform="matrix(0.12345679012345678,0,0,0.12345679012345678,76.41975308641975,0)" xlink:href="#aA"/><use transform="matrix(0.12345679012345678,0,0,0.12345679012345678,101.1111111111111,0)" xlink:href="#au"/><use transform="matrix(0.12345679012345678,0,0,0.12345679012345678,128.14814814814812,0)" xlink:href="#av"/></g><g id="k"><use transform="matrix(0.12345679012345678,0,0,0.12345679012345678,0,0)" xlink:href="#az"/><use transform="matrix(0.12345679012345678,0,0,0.12345679012345678,27.037037037037035,0)" xlink:href="#au"/></g><g id="l"><use transform="matrix(0.12345679012345678,0,0,0.12345679012345678,0,0)" xlink:href="#ay"/><use transform="matrix(0.12345679012345678,0,0,0.12345679012345678,39.50617283950617,0)" xlink:href="#aD"/><use transform="matrix(0.12345679012345678,0,0,0.12345679012345678,51.85185185185185,0)" xlink:href="#aw"/><use transform="matrix(0.12345679012345678,0,0,0.12345679012345678,78.88888888888889,0)" xlink:href="#ax"/></g><path fill="#333" d="M144 0l-44-69L55 0H2l70-98-66-92h53l41 62 40-62h54l-67 91 71 99h-54" id="aE"/><use transform="matrix(0.12345679012345678,0,0,0.12345679012345678,0,0)" xlink:href="#aE" id="m"/><g id="n"><use transform="matrix(0.12345679012345678,0,0,0.12345679012345678,0,0)" xlink:href="#aw"/><use transform="matrix(0.12345679012345678,0,0,0.12345679012345678,27.037037037037035,0)" xlink:href="#as"/><use transform="matrix(0.12345679012345678,0,0,0.12345679012345678,51.72839506172839,0)" xlink:href="#aB"/><use transform="matrix(0.12345679012345678,0,0,0.12345679012345678,66.41975308641975,0)" xlink:href="#au"/><use transform="matrix(0.12345679012345678,0,0,0.12345679012345678,93.45679012345678,0)" xlink:href="#aC"/></g><path fill="#333" d="M190-63c-7 42-38 67-86 67-59 0-84-38-90-98-12-110 154-137 174-36l-49 2c-2-19-15-32-35-32-30 0-35 28-38 64-6 74 65 87 74 30" id="aF"/><g id="o"><use transform="matrix(0.12345679012345678,0,0,0.12345679012345678,0,0)" xlink:href="#ax"/><use transform="matrix(0.12345679012345678,0,0,0.12345679012345678,24.691358024691358,0)" xlink:href="#az"/><use transform="matrix(0.12345679012345678,0,0,0.12345679012345678,51.72839506172839,0)" xlink:href="#aB"/><use transform="matrix(0.12345679012345678,0,0,0.12345679012345678,66.41975308641975,0)" xlink:href="#au"/><use transform="matrix(0.12345679012345678,0,0,0.12345679012345678,93.45679012345678,0)" xlink:href="#az"/><use transform="matrix(0.12345679012345678,0,0,0.12345679012345678,120.49382716049382,0)" xlink:href="#aF"/><use transform="matrix(0.12345679012345678,0,0,0.12345679012345678,145.1851851851852,0)" xlink:href="#ax"/><use transform="matrix(0.12345679012345678,0,0,0.12345679012345678,169.87654320987656,0)" xlink:href="#aA"/></g><g id="p"><use transform="matrix(0.12345679012345678,0,0,0.12345679012345678,0,0)" xlink:href="#ay"/><use transform="matrix(0.12345679012345678,0,0,0.12345679012345678,39.50617283950617,0)" xlink:href="#as"/><use transform="matrix(0.12345679012345678,0,0,0.12345679012345678,64.19753086419753,0)" xlink:href="#az"/><use transform="matrix(0.12345679012345678,0,0,0.12345679012345678,91.23456790123457,0)" xlink:href="#aw"/><use transform="matrix(0.12345679012345678,0,0,0.12345679012345678,118.27160493827161,0)" xlink:href="#as"/><use transform="matrix(0.12345679012345678,0,0,0.12345679012345678,142.96296296296296,0)" xlink:href="#av"/></g><g id="q"><use transform="matrix(0.12345679012345678,0,0,0.12345679012345678,0,0)" xlink:href="#aF"/><use transform="matrix(0.12345679012345678,0,0,0.12345679012345678,24.691358024691358,0)" xlink:href="#au"/><use transform="matrix(0.12345679012345678,0,0,0.12345679012345678,51.72839506172839,0)" xlink:href="#az"/></g><path fill="#333" d="M14-72v-43h91v43H14" id="aG"/><path fill="#333" d="M23 0v-37h61v-169l-59 37v-38l62-41h46v211h57V0H23" id="aH"/><g id="r"><use transform="matrix(0.12345679012345678,0,0,0.12345679012345678,0,0)" xlink:href="#aG"/><use transform="matrix(0.12345679012345678,0,0,0.12345679012345678,14.691358024691358,0)" xlink:href="#aH"/></g><path fill="#333" d="M135-194c52 0 70 43 70 98 0 56-19 99-73 100-30 1-46-15-58-35L72 0H24l1-261h50v104c11-23 29-37 60-37zM114-30c31 0 40-27 40-66 0-37-7-63-39-63s-41 28-41 65c0 36 8 64 40 64" id="aI"/><g id="s"><use transform="matrix(0.09320987654320984,0,0,0.09320987654320984,0,0)" xlink:href="#aw"/><use transform="matrix(0.09320987654320984,0,0,0.09320987654320984,20.412962962962954,0)" xlink:href="#as"/><use transform="matrix(0.09320987654320984,0,0,0.09320987654320984,39.054938271604925,0)" xlink:href="#aA"/><use transform="matrix(0.09320987654320984,0,0,0.09320987654320984,57.696913580246886,0)" xlink:href="#at"/><use transform="matrix(0.09320987654320984,0,0,0.09320987654320984,78.10987654320985,0)" xlink:href="#aI"/><use transform="matrix(0.09320987654320984,0,0,0.09320987654320984,98.5228395061728,0)" xlink:href="#au"/><use transform="matrix(0.09320987654320984,0,0,0.09320987654320984,118.93580246913575,0)" xlink:href="#as"/><use transform="matrix(0.09320987654320984,0,0,0.09320987654320984,137.57777777777773,0)" xlink:href="#av"/><use transform="matrix(0.09320987654320984,0,0,0.09320987654320984,150.6271604938271,0)" xlink:href="#aw"/></g><path fill="#333" d="M230 0l2-204L168 0h-37L68-204 70 0H24v-248h70l56 185 57-185h69V0h-46" id="aJ"/><g id="t"><use transform="matrix(0.13024691358024676,0,0,0.13024691358024676,0,0)" xlink:href="#aJ"/><use transform="matrix(0.13024691358024676,0,0,0.13024691358024676,38.94382716049378,0)" xlink:href="#au"/><use transform="matrix(0.13024691358024676,0,0,0.13024691358024676,67.46790123456782,0)" xlink:href="#aA"/><use transform="matrix(0.13024691358024676,0,0,0.13024691358024676,93.51728395061717,0)" xlink:href="#aB"/><use transform="matrix(0.13024691358024676,0,0,0.13024691358024676,109.01666666666654,0)" xlink:href="#as"/><use transform="matrix(0.13024691358024676,0,0,0.13024691358024676,135.0660493827159,0)" xlink:href="#av"/></g><path fill="#333" d="M85 4C-2 5 27-109 22-190h50c7 57-23 150 33 157 60-5 35-97 40-157h50l1 190h-47c-2-12 1-28-3-38-12 25-28 42-61 42" id="aK"/><g id="u"><use transform="matrix(0.13024691358024676,0,0,0.13024691358024676,0,0)" xlink:href="#aK"/><use transform="matrix(0.13024691358024676,0,0,0.13024691358024676,28.52407407407404,0)" xlink:href="#ar"/><use transform="matrix(0.13024691358024676,0,0,0.13024691358024676,41.54876543209872,0)" xlink:href="#aB"/><use transform="matrix(0.13024691358024676,0,0,0.13024691358024676,57.04814814814809,0)" xlink:href="#aD"/><use transform="matrix(0.13024691358024676,0,0,0.13024691358024676,70.07283950617276,0)" xlink:href="#ay"/><use transform="matrix(0.13024691358024676,0,0,0.13024691358024676,111.75185185185171,0)" xlink:href="#as"/><use transform="matrix(0.13024691358024676,0,0,0.13024691358024676,137.80123456790108,0)" xlink:href="#aA"/></g><path fill="#333" d="M110-251c83-7 118 89 53 130-17 10-36 21-38 46H78c2-56 65-53 71-103 2-21-15-35-38-34-25 1-41 14-44 38l-50-2c6-48 39-70 93-75zM77 0v-47h51V0H77" id="aL"/><g id="v"><use transform="matrix(0.13024691358024676,0,0,0.13024691358024676,0,0)" xlink:href="#ay"/><use transform="matrix(0.13024691358024676,0,0,0.13024691358024676,41.67901234567896,0)" xlink:href="#ax"/><use transform="matrix(0.13024691358024676,0,0,0.13024691358024676,67.72839506172832,0)" xlink:href="#aw"/><use transform="matrix(0.13024691358024676,0,0,0.13024691358024676,96.25246913580236,0)" xlink:href="#aD"/><use transform="matrix(0.13024691358024676,0,0,0.13024691358024676,109.27716049382704,0)" xlink:href="#aF"/><use transform="matrix(0.13024691358024676,0,0,0.13024691358024676,135.32654320987638,0)" xlink:href="#aD"/><use transform="matrix(0.13024691358024676,0,0,0.13024691358024676,148.35123456790106,0)" xlink:href="#au"/><use transform="matrix(0.13024691358024676,0,0,0.13024691358024676,176.8753086419751,0)" xlink:href="#az"/><use transform="matrix(0.13024691358024676,0,0,0.13024691358024676,205.39938271604913,0)" xlink:href="#ax"/><use transform="matrix(0.13024691358024676,0,0,0.13024691358024676,231.44876543209847,0)" xlink:href="#aA"/><use transform="matrix(0.13024691358024676,0,0,0.13024691358024676,257.49814814814783,0)" xlink:href="#aL"/></g><path fill="#333" d="M25 0v-190h50V0H25zm-5-208v-5l45-51h45v8l-60 48H20" id="aM"/><g id="x"><use transform="matrix(0.13024691358024676,0,0,0.13024691358024676,0,0)" xlink:href="#ar"/><use transform="matrix(0.13024691358024676,0,0,0.13024691358024676,13.024691358024675,0)" xlink:href="#aM"/><use transform="matrix(0.13024691358024676,0,0,0.13024691358024676,26.04938271604935,0)" xlink:href="#ay"/><use transform="matrix(0.13024691358024676,0,0,0.13024691358024676,67.72839506172832,0)" xlink:href="#aD"/><use transform="matrix(0.13024691358024676,0,0,0.13024691358024676,80.753086419753,0)" xlink:href="#aB"/><use transform="matrix(0.13024691358024676,0,0,0.13024691358024676,96.25246913580237,0)" xlink:href="#ax"/><use transform="matrix(0.13024691358024676,0,0,0.13024691358024676,122.30185185185172,0)" xlink:href="#aA"/></g><g id="y"><use transform="matrix(0.13024691358024676,0,0,0.13024691358024676,0,0)" xlink:href="#aw"/><use transform="matrix(0.13024691358024676,0,0,0.13024691358024676,28.52407407407404,0)" xlink:href="#ax"/></g><g id="z"><use transform="matrix(0.13024691358024676,0,0,0.13024691358024676,0,0)" xlink:href="#as"/><use transform="matrix(0.13024691358024676,0,0,0.13024691358024676,26.04938271604935,0)" xlink:href="#ar"/><use transform="matrix(0.13024691358024676,0,0,0.13024691358024676,39.074074074074026,0)" xlink:href="#ax"/><use transform="matrix(0.13024691358024676,0,0,0.13024691358024676,65.12345679012338,0)" xlink:href="#av"/><use transform="matrix(0.13024691358024676,0,0,0.13024691358024676,83.35802469135793,0)" xlink:href="#aB"/><use transform="matrix(0.13024691358024676,0,0,0.13024691358024676,98.8574074074073,0)" xlink:href="#as"/><use transform="matrix(0.13024691358024676,0,0,0.13024691358024676,124.90679012345664,0)" xlink:href="#aL"/></g><g id="A"><use transform="matrix(0.06172839506172839,0,0,0.06172839506172839,0,0)" xlink:href="#aK"/><use transform="matrix(0.06172839506172839,0,0,0.06172839506172839,13.518518518518517,0)" xlink:href="#aA"/><use transform="matrix(0.06172839506172839,0,0,0.06172839506172839,25.864197530864196,0)" xlink:href="#ax"/><use transform="matrix(0.06172839506172839,0,0,0.06172839506172839,38.20987654320987,0)" xlink:href="#av"/><use transform="matrix(0.06172839506172839,0,0,0.06172839506172839,46.85185185185185,0)" xlink:href="#aq"/><use transform="matrix(0.06172839506172839,0,0,0.06172839506172839,62.8395061728395,0)" xlink:href="#ar"/><use transform="matrix(0.06172839506172839,0,0,0.06172839506172839,69.01234567901234,0)" xlink:href="#ax"/><use transform="matrix(0.06172839506172839,0,0,0.06172839506172839,81.35802469135803,0)" xlink:href="#av"/><use transform="matrix(0.06172839506172839,0,0,0.06172839506172839,90,0)" xlink:href="#aB"/><use transform="matrix(0.06172839506172839,0,0,0.06172839506172839,97.34567901234568,0)" xlink:href="#aA"/></g><path d="M106-169C34-169 62-67 57 0H25v-261h32l-1 103c12-21 28-36 61-36 89 0 53 116 60 194h-32v-121c2-32-8-49-39-48" id="aN"/><path d="M84 4C-5 8 30-112 23-190h32v120c0 31 7 50 39 49 72-2 45-101 50-169h31l1 190h-30c-1-10 1-25-2-33-11 22-28 36-60 37" id="aO"/><path d="M210-169c-67 3-38 105-44 169h-31v-121c0-29-5-50-35-48C34-165 62-65 56 0H25l-1-190h30c1 10-1 24 2 32 10-44 99-50 107 0 11-21 27-35 58-36 85-2 47 119 55 194h-31v-121c0-29-5-49-35-48" id="aP"/><path d="M24-231v-30h32v30H24zM24 0v-190h32V0H24" id="aQ"/><path d="M85-194c31 0 48 13 60 33l-1-100h32l1 261h-30c-2-10 0-23-3-31C134-8 116 4 85 4 32 4 16-35 15-94c0-66 23-100 70-100zm9 24c-40 0-46 34-46 75 0 40 6 74 45 74 42 0 51-32 51-76 0-42-9-74-50-73" id="aR"/><path d="M59-47c-2 24 18 29 38 22v24C64 9 27 4 27-40v-127H5v-23h24l9-43h21v43h35v23H59v120" id="aS"/><path d="M179-190L93 31C79 59 56 82 12 73V49c39 6 53-20 64-50L1-190h34L92-34l54-156h33" id="aT"/><path d="M30 0v-248h33v221h125V0H30" id="aU"/><g id="B"><use transform="matrix(0.05,0,0,0.05,0,0)" xlink:href="#aN"/><use transform="matrix(0.05,0,0,0.05,10,0)" xlink:href="#aO"/><use transform="matrix(0.05,0,0,0.05,20,0)" xlink:href="#aP"/><use transform="matrix(0.05,0,0,0.05,34.95,0)" xlink:href="#aQ"/><use transform="matrix(0.05,0,0,0.05,38.900000000000006,0)" xlink:href="#aR"/><use transform="matrix(0.05,0,0,0.05,48.900000000000006,0)" xlink:href="#aQ"/><use transform="matrix(0.05,0,0,0.05,52.85,0)" xlink:href="#aS"/><use transform="matrix(0.05,0,0,0.05,57.85,0)" xlink:href="#aT"/><use transform="matrix(0.05,0,0,0.05,66.85000000000001,0)" xlink:href="#aU"/><use transform="matrix(0.05,0,0,0.05,76.85000000000001,0)" xlink:href="#aQ"/><use transform="matrix(0.05,0,0,0.05,80.80000000000001,0)" xlink:href="#aP"/><use transform="matrix(0.05,0,0,0.05,95.75000000000001,0)" xlink:href="#aQ"/><use transform="matrix(0.05,0,0,0.05,99.70000000000002,0)" xlink:href="#aS"/></g><path d="M39-94c74 12-11 154 75 146v23c-44 4-70-10-70-52C44-23 55-84 6-82v-22c81 4-7-162 84-157h24v23c-82-15-2 131-75 144" id="aV"/><path d="M117-194c89-4 53 116 60 194h-32v-121c0-31-8-49-39-48C34-167 62-67 57 0H25l-1-190h30c1 10-1 24 2 32 11-22 29-35 61-36" id="aW"/><path d="M33-154v-36h34v36H33zM33 0v-36h34V0H33" id="aX"/><g id="C"><use transform="matrix(0.05,0,0,0.05,0,0)" xlink:href="#aV"/><use transform="matrix(0.05,0,0,0.05,6,0)" xlink:href="#aP"/><use transform="matrix(0.05,0,0,0.05,20.950000000000003,0)" xlink:href="#aQ"/><use transform="matrix(0.05,0,0,0.05,24.900000000000002,0)" xlink:href="#aW"/><use transform="matrix(0.05,0,0,0.05,34.900000000000006,0)" xlink:href="#aX"/></g><path d="M141-36C126-15 110 5 73 4 37 3 15-17 15-53c-1-64 63-63 125-63 3-35-9-54-41-54-24 1-41 7-42 31l-33-3c5-37 33-52 76-52 45 0 72 20 72 64v82c-1 20 7 32 28 27v20c-31 9-61-2-59-35zM48-53c0 20 12 33 32 33 41-3 63-29 60-74-43 2-92-5-92 41" id="aY"/><path d="M141 0L90-78 38 0H4l68-98-65-92h35l48 74 47-74h35l-64 92 68 98h-35" id="aZ"/><g id="D"><use transform="matrix(0.05,0,0,0.05,0,0)" xlink:href="#aP"/><use transform="matrix(0.05,0,0,0.05,14.950000000000001,0)" xlink:href="#aY"/><use transform="matrix(0.05,0,0,0.05,24.950000000000003,0)" xlink:href="#aZ"/><use transform="matrix(0.05,0,0,0.05,33.95,0)" xlink:href="#aX"/></g><path d="M76-40C78 24 84 88 6 75V52C86 64 9-79 80-94c-40-6-34-59-34-106 1-29-11-41-40-38v-23c44-4 70 10 70 52 0 47-12 108 38 105v22c-26 1-39 14-38 42" id="ba"/><use transform="matrix(0.05,0,0,0.05,0,0)" xlink:href="#ba" id="E"/><path d="M100-194c63 0 86 42 84 106H49c0 40 14 67 53 68 26 1 43-12 49-29l28 8c-11 28-37 45-77 45C44 4 14-33 15-96c1-61 26-98 85-98zm52 81c6-60-76-77-97-28-3 7-6 17-6 28h103" id="bb"/><path d="M115-194c55 1 70 41 70 98S169 2 115 4C84 4 66-9 55-30l1 105H24l-1-265h31l2 30c10-21 28-34 59-34zm-8 174c40 0 45-34 45-75s-6-73-45-74c-42 0-51 32-51 76 0 43 10 73 51 73" id="bc"/><path d="M114-163C36-179 61-72 57 0H25l-1-190h30c1 12-1 29 2 39 6-27 23-49 58-41v29" id="bd"/><g id="F"><use transform="matrix(0.05,0,0,0.05,0,0)" xlink:href="#aS"/><use transform="matrix(0.05,0,0,0.05,5,0)" xlink:href="#bb"/><use transform="matrix(0.05,0,0,0.05,15,0)" xlink:href="#aP"/><use transform="matrix(0.05,0,0,0.05,29.950000000000003,0)" xlink:href="#bc"/><use transform="matrix(0.05,0,0,0.05,39.95,0)" xlink:href="#bb"/><use transform="matrix(0.05,0,0,0.05,49.95,0)" xlink:href="#bd"/><use transform="matrix(0.05,0,0,0.05,55.900000000000006,0)" xlink:href="#aY"/><use transform="matrix(0.05,0,0,0.05,65.9,0)" xlink:href="#aS"/><use transform="matrix(0.05,0,0,0.05,70.9,0)" xlink:href="#aO"/><use transform="matrix(0.05,0,0,0.05,80.9,0)" xlink:href="#bd"/><use transform="matrix(0.05,0,0,0.05,86.85000000000001,0)" xlink:href="#bb"/><use transform="matrix(0.05,0,0,0.05,96.85000000000001,0)" xlink:href="#aU"/><use transform="matrix(0.05,0,0,0.05,106.85000000000001,0)" xlink:href="#aQ"/><use transform="matrix(0.05,0,0,0.05,110.80000000000001,0)" xlink:href="#aP"/><use transform="matrix(0.05,0,0,0.05,125.75,0)" xlink:href="#aQ"/><use transform="matrix(0.05,0,0,0.05,129.70000000000002,0)" xlink:href="#aS"/></g><path d="M135-143c-3-34-86-38-87 0 15 53 115 12 119 90S17 21 10-45l28-5c4 36 97 45 98 0-10-56-113-15-118-90-4-57 82-63 122-42 12 7 21 19 24 35" id="be"/><g id="G"><use transform="matrix(0.05,0,0,0.05,0,0)" xlink:href="#bc"/><use transform="matrix(0.05,0,0,0.05,10,0)" xlink:href="#bd"/><use transform="matrix(0.05,0,0,0.05,15.949999999999998,0)" xlink:href="#bb"/><use transform="matrix(0.05,0,0,0.05,25.950000000000003,0)" xlink:href="#be"/><use transform="matrix(0.05,0,0,0.05,34.95,0)" xlink:href="#be"/><use transform="matrix(0.05,0,0,0.05,43.95,0)" xlink:href="#aO"/><use transform="matrix(0.05,0,0,0.05,53.95,0)" xlink:href="#bd"/><use transform="matrix(0.05,0,0,0.05,59.900000000000006,0)" xlink:href="#bb"/><use transform="matrix(0.05,0,0,0.05,69.9,0)" xlink:href="#aU"/><use transform="matrix(0.05,0,0,0.05,79.9,0)" xlink:href="#aQ"/><use transform="matrix(0.05,0,0,0.05,83.85000000000001,0)" xlink:href="#aP"/><use transform="matrix(0.05,0,0,0.05,98.80000000000001,0)" xlink:href="#aQ"/><use transform="matrix(0.05,0,0,0.05,102.75,0)" xlink:href="#aS"/></g><path d="M24 0v-261h32V0H24" id="bf"/><g id="H"><use transform="matrix(0.05,0,0,0.05,0,0)" xlink:href="#aY"/><use transform="matrix(0.05,0,0,0.05,10,0)" xlink:href="#bf"/><use transform="matrix(0.05,0,0,0.05,13.949999999999998,0)" xlink:href="#aS"/><use transform="matrix(0.05,0,0,0.05,18.95,0)" xlink:href="#aQ"/><use transform="matrix(0.05,0,0,0.05,22.9,0)" xlink:href="#aS"/><use transform="matrix(0.05,0,0,0.05,27.899999999999995,0)" xlink:href="#aO"/><use transform="matrix(0.05,0,0,0.05,37.9,0)" xlink:href="#aR"/><use transform="matrix(0.05,0,0,0.05,47.9,0)" xlink:href="#bb"/><use transform="matrix(0.05,0,0,0.05,57.900000000000006,0)" xlink:href="#aU"/><use transform="matrix(0.05,0,0,0.05,67.9,0)" xlink:href="#aQ"/><use transform="matrix(0.05,0,0,0.05,71.85000000000001,0)" xlink:href="#aP"/><use transform="matrix(0.05,0,0,0.05,86.80000000000001,0)" xlink:href="#aQ"/><use transform="matrix(0.05,0,0,0.05,90.75000000000001,0)" xlink:href="#aS"/></g><path d="M177-190C167-65 218 103 67 71c-23-6-38-20-44-43l32-5c15 47 100 32 89-28v-30C133-14 115 1 83 1 29 1 15-40 15-95c0-56 16-97 71-98 29-1 48 16 59 35 1-10 0-23 2-32h30zM94-22c36 0 50-32 50-73 0-42-14-75-50-75-39 0-46 34-46 75s6 73 46 73" id="bg"/><g id="I"><use transform="matrix(0.05,0,0,0.05,0,0)" xlink:href="#bf"/><use transform="matrix(0.05,0,0,0.05,3.95,0)" xlink:href="#aQ"/><use transform="matrix(0.05,0,0,0.05,7.9,0)" xlink:href="#bg"/><use transform="matrix(0.05,0,0,0.05,17.9,0)" xlink:href="#aN"/><use transform="matrix(0.05,0,0,0.05,27.899999999999995,0)" xlink:href="#aS"/><use transform="matrix(0.05,0,0,0.05,32.9,0)" xlink:href="#aU"/><use transform="matrix(0.05,0,0,0.05,42.9,0)" xlink:href="#aQ"/><use transform="matrix(0.05,0,0,0.05,46.85,0)" xlink:href="#aP"/><use transform="matrix(0.05,0,0,0.05,61.800000000000004,0)" xlink:href="#aQ"/><use transform="matrix(0.05,0,0,0.05,65.75,0)" xlink:href="#aS"/></g><path d="M100-194c62-1 85 37 85 99 1 63-27 99-86 99S16-35 15-95c0-66 28-99 85-99zM99-20c44 1 53-31 53-75 0-43-8-75-51-75s-53 32-53 75 10 74 51 75" id="bh"/><path d="M240 0l2-218c-23 76-54 145-80 218h-23L58-218 59 0H30v-248h44l77 211c21-75 51-140 76-211h43V0h-30" id="bi"/><g id="J"><use transform="matrix(0.05,0,0,0.05,0,0)" xlink:href="#be"/><use transform="matrix(0.05,0,0,0.05,9,0)" xlink:href="#bh"/><use transform="matrix(0.05,0,0,0.05,19,0)" xlink:href="#aQ"/><use transform="matrix(0.05,0,0,0.05,22.95,0)" xlink:href="#bf"/><use transform="matrix(0.05,0,0,0.05,26.899999999999995,0)" xlink:href="#bi"/><use transform="matrix(0.05,0,0,0.05,41.85,0)" xlink:href="#bh"/><use transform="matrix(0.05,0,0,0.05,51.85,0)" xlink:href="#aQ"/><use transform="matrix(0.05,0,0,0.05,55.800000000000004,0)" xlink:href="#be"/><use transform="matrix(0.05,0,0,0.05,64.80000000000001,0)" xlink:href="#aS"/><use transform="matrix(0.05,0,0,0.05,69.80000000000001,0)" xlink:href="#aO"/><use transform="matrix(0.05,0,0,0.05,79.80000000000001,0)" xlink:href="#bd"/><use transform="matrix(0.05,0,0,0.05,85.75000000000001,0)" xlink:href="#bb"/><use transform="matrix(0.05,0,0,0.05,95.75000000000001,0)" xlink:href="#aU"/><use transform="matrix(0.05,0,0,0.05,105.75,0)" xlink:href="#aQ"/><use transform="matrix(0.05,0,0,0.05,109.7,0)" xlink:href="#aP"/><use transform="matrix(0.05,0,0,0.05,124.65000000000003,0)" xlink:href="#aQ"/><use transform="matrix(0.05,0,0,0.05,128.60000000000002,0)" xlink:href="#aS"/></g><g id="K"><use transform="matrix(0.05,0,0,0.05,0,0)" xlink:href="#bd"/><use transform="matrix(0.05,0,0,0.05,5.95,0)" xlink:href="#aY"/><use transform="matrix(0.05,0,0,0.05,15.949999999999998,0)" xlink:href="#aQ"/><use transform="matrix(0.05,0,0,0.05,19.9,0)" xlink:href="#aW"/><use transform="matrix(0.05,0,0,0.05,29.899999999999995,0)" xlink:href="#aU"/><use transform="matrix(0.05,0,0,0.05,39.9,0)" xlink:href="#aQ"/><use transform="matrix(0.05,0,0,0.05,43.85,0)" xlink:href="#aP"/><use transform="matrix(0.05,0,0,0.05,58.800000000000004,0)" xlink:href="#aQ"/><use transform="matrix(0.05,0,0,0.05,62.75,0)" xlink:href="#aS"/></g><path d="M115-194c53 0 69 39 70 98 0 66-23 100-70 100C84 3 66-7 56-30L54 0H23l1-261h32v101c10-23 28-34 59-34zm-8 174c40 0 45-34 45-75 0-40-5-75-45-74-42 0-51 32-51 76 0 43 10 73 51 73" id="bj"/><g id="L"><use transform="matrix(0.05,0,0,0.05,0,0)" xlink:href="#bj"/><use transform="matrix(0.05,0,0,0.05,10,0)" xlink:href="#aY"/><use transform="matrix(0.05,0,0,0.05,20,0)" xlink:href="#aS"/><use transform="matrix(0.05,0,0,0.05,25,0)" xlink:href="#aS"/><use transform="matrix(0.05,0,0,0.05,30,0)" xlink:href="#bb"/><use transform="matrix(0.05,0,0,0.05,40,0)" xlink:href="#bd"/><use transform="matrix(0.05,0,0,0.05,45.95,0)" xlink:href="#aT"/><use transform="matrix(0.05,0,0,0.05,54.95,0)" xlink:href="#aU"/><use transform="matrix(0.05,0,0,0.05,64.95,0)" xlink:href="#aQ"/><use transform="matrix(0.05,0,0,0.05,68.9,0)" xlink:href="#aP"/><use transform="matrix(0.05,0,0,0.05,83.85000000000001,0)" xlink:href="#aQ"/><use transform="matrix(0.05,0,0,0.05,87.80000000000001,0)" xlink:href="#aS"/></g><path fill="#333" d="M20 75v-336h95v34H67V41h48v34H20" id="bk"/><g id="M"><use transform="matrix(0.06234567901234567,0,0,0.06234567901234567,0,0)" xlink:href="#ar"/><use transform="matrix(0.06234567901234567,0,0,0.06234567901234567,6.234567901234566,0)" xlink:href="#as"/><use transform="matrix(0.06234567901234567,0,0,0.06234567901234567,18.7037037037037,0)" xlink:href="#aA"/><use transform="matrix(0.06234567901234567,0,0,0.06234567901234567,31.17283950617283,0)" xlink:href="#aB"/><use transform="matrix(0.06234567901234567,0,0,0.06234567901234567,38.59197530864196,0)" xlink:href="#aJ"/><use transform="matrix(0.06234567901234567,0,0,0.06234567901234567,57.23333333333332,0)" xlink:href="#ax"/><use transform="matrix(0.06234567901234567,0,0,0.06234567901234567,69.70246913580246,0)" xlink:href="#as"/><use transform="matrix(0.06234567901234567,0,0,0.06234567901234567,82.1716049382716,0)" xlink:href="#aA"/><use transform="matrix(0.06234567901234567,0,0,0.06234567901234567,94.64074074074074,0)" xlink:href="#aK"/><use transform="matrix(0.06234567901234567,0,0,0.06234567901234567,108.29444444444444,0)" xlink:href="#av"/><use transform="matrix(0.06234567901234567,0,0,0.06234567901234567,117.02283950617283,0)" xlink:href="#ax"/><use transform="matrix(0.06234567901234567,0,0,0.06234567901234567,129.49197530864197,0)" xlink:href="#aA"/><use transform="matrix(0.06234567901234567,0,0,0.06234567901234567,141.9611111111111,0)" xlink:href="#bk"/></g><path fill="#333" d="M4 75V41h49v-268H4v-34h96V75H4" id="bl"/><use transform="matrix(0.06234567901234567,0,0,0.06234567901234567,0,0)" xlink:href="#bl" id="N"/><g id="O"><use transform="matrix(0.05,0,0,0.05,0,0)" xlink:href="#aN"/><use transform="matrix(0.05,0,0,0.05,10,0)" xlink:href="#aO"/><use transform="matrix(0.05,0,0,0.05,20,0)" xlink:href="#aP"/><use transform="matrix(0.05,0,0,0.05,34.95,0)" xlink:href="#aQ"/><use transform="matrix(0.05,0,0,0.05,38.900000000000006,0)" xlink:href="#aR"/><use transform="matrix(0.05,0,0,0.05,48.900000000000006,0)" xlink:href="#aQ"/><use transform="matrix(0.05,0,0,0.05,52.85,0)" xlink:href="#aS"/><use transform="matrix(0.05,0,0,0.05,57.85,0)" xlink:href="#aT"/></g><g id="P"><use transform="matrix(0.05,0,0,0.05,0,0)" xlink:href="#aR"/><use transform="matrix(0.05,0,0,0.05,10,0)" xlink:href="#bh"/><use transform="matrix(0.05,0,0,0.05,20,0)" xlink:href="#aO"/><use transform="matrix(0.05,0,0,0.05,30,0)" xlink:href="#bj"/><use transform="matrix(0.05,0,0,0.05,40,0)" xlink:href="#bf"/><use transform="matrix(0.05,0,0,0.05,43.95,0)" xlink:href="#bb"/></g><g id="Q"><use transform="matrix(0.05,0,0,0.05,0,0)" xlink:href="#aS"/><use transform="matrix(0.05,0,0,0.05,5,0)" xlink:href="#bb"/><use transform="matrix(0.05,0,0,0.05,15,0)" xlink:href="#aP"/><use transform="matrix(0.05,0,0,0.05,29.950000000000003,0)" xlink:href="#bc"/><use transform="matrix(0.05,0,0,0.05,39.95,0)" xlink:href="#bb"/><use transform="matrix(0.05,0,0,0.05,49.95,0)" xlink:href="#bd"/><use transform="matrix(0.05,0,0,0.05,55.900000000000006,0)" xlink:href="#aY"/><use transform="matrix(0.05,0,0,0.05,65.9,0)" xlink:href="#aS"/><use transform="matrix(0.05,0,0,0.05,70.9,0)" xlink:href="#aO"/><use transform="matrix(0.05,0,0,0.05,80.9,0)" xlink:href="#bd"/><use transform="matrix(0.05,0,0,0.05,86.85000000000001,0)" xlink:href="#bb"/></g><g id="R"><use transform="matrix(0.05,0,0,0.05,0,0)" xlink:href="#bc"/><use transform="matrix(0.05,0,0,0.05,10,0)" xlink:href="#bd"/><use transform="matrix(0.05,0,0,0.05,15.949999999999998,0)" xlink:href="#bb"/><use transform="matrix(0.05,0,0,0.05,25.950000000000003,0)" xlink:href="#be"/><use transform="matrix(0.05,0,0,0.05,34.95,0)" xlink:href="#be"/><use transform="matrix(0.05,0,0,0.05,43.95,0)" xlink:href="#aO"/><use transform="matrix(0.05,0,0,0.05,53.95,0)" xlink:href="#bd"/><use transform="matrix(0.05,0,0,0.05,59.900000000000006,0)" xlink:href="#bb"/></g><g id="S"><use transform="matrix(0.05,0,0,0.05,0,0)" xlink:href="#aY"/><use transform="matrix(0.05,0,0,0.05,10,0)" xlink:href="#bf"/><use transform="matrix(0.05,0,0,0.05,13.949999999999998,0)" xlink:href="#aS"/><use transform="matrix(0.05,0,0,0.05,18.95,0)" xlink:href="#aQ"/><use transform="matrix(0.05,0,0,0.05,22.9,0)" xlink:href="#aS"/><use transform="matrix(0.05,0,0,0.05,27.899999999999995,0)" xlink:href="#aO"/><use transform="matrix(0.05,0,0,0.05,37.9,0)" xlink:href="#aR"/><use transform="matrix(0.05,0,0,0.05,47.9,0)" xlink:href="#bb"/></g><g id="T"><use transform="matrix(0.05,0,0,0.05,0,0)" xlink:href="#bf"/><use transform="matrix(0.05,0,0,0.05,3.95,0)" xlink:href="#aQ"/><use transform="matrix(0.05,0,0,0.05,7.9,0)" xlink:href="#bg"/><use transform="matrix(0.05,0,0,0.05,17.9,0)" xlink:href="#aN"/><use transform="matrix(0.05,0,0,0.05,27.899999999999995,0)" xlink:href="#aS"/></g><g id="U"><use transform="matrix(0.05,0,0,0.05,0,0)" xlink:href="#be"/><use transform="matrix(0.05,0,0,0.05,9,0)" xlink:href="#bh"/><use transform="matrix(0.05,0,0,0.05,19,0)" xlink:href="#aQ"/><use transform="matrix(0.05,0,0,0.05,22.95,0)" xlink:href="#bf"/><use transform="matrix(0.05,0,0,0.05,26.899999999999995,0)" xlink:href="#bi"/><use transform="matrix(0.05,0,0,0.05,41.85,0)" xlink:href="#bh"/><use transform="matrix(0.05,0,0,0.05,51.85,0)" xlink:href="#aQ"/><use transform="matrix(0.05,0,0,0.05,55.800000000000004,0)" xlink:href="#be"/><use transform="matrix(0.05,0,0,0.05,64.80000000000001,0)" xlink:href="#aS"/><use transform="matrix(0.05,0,0,0.05,69.80000000000001,0)" xlink:href="#aO"/><use transform="matrix(0.05,0,0,0.05,79.80000000000001,0)" xlink:href="#bd"/><use transform="matrix(0.05,0,0,0.05,85.75000000000001,0)" xlink:href="#bb"/></g><g id="V"><use transform="matrix(0.05,0,0,0.05,0,0)" xlink:href="#bd"/><use transform="matrix(0.05,0,0,0.05,5.95,0)" xlink:href="#aY"/><use transform="matrix(0.05,0,0,0.05,15.949999999999998,0)" xlink:href="#aQ"/><use transform="matrix(0.05,0,0,0.05,19.9,0)" xlink:href="#aW"/></g><g id="W"><use transform="matrix(0.05,0,0,0.05,0,0)" xlink:href="#bj"/><use transform="matrix(0.05,0,0,0.05,10,0)" xlink:href="#aY"/><use transform="matrix(0.05,0,0,0.05,20,0)" xlink:href="#aS"/><use transform="matrix(0.05,0,0,0.05,25,0)" xlink:href="#aS"/><use transform="matrix(0.05,0,0,0.05,30,0)" xlink:href="#bb"/><use transform="matrix(0.05,0,0,0.05,40,0)" xlink:href="#bd"/><use transform="matrix(0.05,0,0,0.05,45.95,0)" xlink:href="#aT"/></g><g id="X"><use transform="matrix(0.05,0,0,0.05,0,0)" xlink:href="#aR"/><use transform="matrix(0.05,0,0,0.05,10,0)" xlink:href="#aY"/><use transform="matrix(0.05,0,0,0.05,20,0)" xlink:href="#aS"/><use transform="matrix(0.05,0,0,0.05,25,0)" xlink:href="#bb"/></g><path d="M101-234c-31-9-42 10-38 44h38v23H63V0H32v-167H5v-23h27c-7-52 17-82 69-68v24" id="bm"/><g id="Y"><use transform="matrix(0.05,0,0,0.05,0,0)" xlink:href="#bm"/><use transform="matrix(0.05,0,0,0.05,5,0)" xlink:href="#bh"/><use transform="matrix(0.05,0,0,0.05,15,0)" xlink:href="#bd"/><use transform="matrix(0.05,0,0,0.05,20.95,0)" xlink:href="#aP"/><use transform="matrix(0.05,0,0,0.05,35.9,0)" xlink:href="#aY"/><use transform="matrix(0.05,0,0,0.05,45.9,0)" xlink:href="#aS"/><use transform="matrix(0.05,0,0,0.05,50.9,0)" xlink:href="#aS"/><use transform="matrix(0.05,0,0,0.05,55.900000000000006,0)" xlink:href="#bb"/><use transform="matrix(0.05,0,0,0.05,65.9,0)" xlink:href="#aR"/></g><g id="Z"><use transform="matrix(0.05,0,0,0.05,0,0)" xlink:href="#be"/><use transform="matrix(0.05,0,0,0.05,9,0)" xlink:href="#aS"/><use transform="matrix(0.05,0,0,0.05,14,0)" xlink:href="#bd"/><use transform="matrix(0.05,0,0,0.05,19.95,0)" xlink:href="#aQ"/><use transform="matrix(0.05,0,0,0.05,23.9,0)" xlink:href="#aW"/><use transform="matrix(0.05,0,0,0.05,33.9,0)" xlink:href="#bg"/></g><path fill="#333" d="M135-143c-3-34-86-38-87 0 15 53 115 12 119 90S17 21 10-45l28-5c4 36 97 45 98 0-10-56-113-15-118-90-4-57 82-63 122-42 12 7 21 19 24 35" id="bn"/><path fill="#333" d="M100-194c63 0 86 42 84 106H49c0 40 14 67 53 68 26 1 43-12 49-29l28 8c-11 28-37 45-77 45C44 4 14-33 15-96c1-61 26-98 85-98zm52 81c6-60-76-77-97-28-3 7-6 17-6 28h103" id="bo"/><path fill="#333" d="M117-194c89-4 53 116 60 194h-32v-121c0-31-8-49-39-48C34-167 62-67 57 0H25l-1-190h30c1 10-1 24 2 32 11-22 29-35 61-36" id="bp"/><path fill="#333" d="M100-194c62-1 85 37 85 99 1 63-27 99-86 99S16-35 15-95c0-66 28-99 85-99zM99-20c44 1 53-31 53-75 0-43-8-75-51-75s-53 32-53 75 10 74 51 75" id="bq"/><path fill="#333" d="M114-163C36-179 61-72 57 0H25l-1-190h30c1 12-1 29 2 39 6-27 23-49 58-41v29" id="br"/><path fill="#333" d="M190 0L58-211 59 0H30v-248h39L202-35l-2-213h31V0h-41" id="bs"/><path fill="#333" d="M141-36C126-15 110 5 73 4 37 3 15-17 15-53c-1-64 63-63 125-63 3-35-9-54-41-54-24 1-41 7-42 31l-33-3c5-37 33-52 76-52 45 0 72 20 72 64v82c-1 20 7 32 28 27v20c-31 9-61-2-59-35zM48-53c0 20 12 33 32 33 41-3 63-29 60-74-43 2-92-5-92 41" id="bt"/><path fill="#333" d="M210-169c-67 3-38 105-44 169h-31v-121c0-29-5-50-35-48C34-165 62-65 56 0H25l-1-190h30c1 10-1 24 2 32 10-44 99-50 107 0 11-21 27-35 58-36 85-2 47 119 55 194h-31v-121c0-29-5-49-35-48" id="bu"/><g id="aa"><use transform="matrix(0.05,0,0,0.05,0,0)" xlink:href="#bn"/><use transform="matrix(0.05,0,0,0.05,9,0)" xlink:href="#bo"/><use transform="matrix(0.05,0,0,0.05,19,0)" xlink:href="#bp"/><use transform="matrix(0.05,0,0,0.05,29,0)" xlink:href="#bn"/><use transform="matrix(0.05,0,0,0.05,38,0)" xlink:href="#bq"/><use transform="matrix(0.05,0,0,0.05,48,0)" xlink:href="#br"/><use transform="matrix(0.05,0,0,0.05,53.95,0)" xlink:href="#bs"/><use transform="matrix(0.05,0,0,0.05,66.9,0)" xlink:href="#bt"/><use transform="matrix(0.05,0,0,0.05,76.9,0)" xlink:href="#bu"/><use transform="matrix(0.05,0,0,0.05,91.85000000000001,0)" xlink:href="#bo"/></g><path fill="#333" d="M67-125c0 53 21 87 73 88 37 1 54-22 65-47l45 17C233-25 199 4 140 4 58 4 20-42 15-125 8-235 124-281 211-232c18 10 29 29 36 50l-46 12c-8-25-30-41-62-41-52 0-71 34-72 86" id="bv"/><path fill="#333" d="M135-194c53 0 70 44 70 98 0 56-19 98-73 100-31 1-45-17-59-34 3 33 2 69 2 105H25l-1-265h48c2 10 0 23 3 31 11-24 29-35 60-35zM114-30c33 0 39-31 40-66 0-38-9-64-40-64-56 0-55 130 0 130" id="bw"/><g id="ab"><use transform="matrix(0.13024691358024676,0,0,0.13024691358024676,0,0)" xlink:href="#bv"/><use transform="matrix(0.13024691358024676,0,0,0.13024691358024676,33.73395061728391,0)" xlink:href="#au"/><use transform="matrix(0.13024691358024676,0,0,0.13024691358024676,62.258024691357946,0)" xlink:href="#ay"/><use transform="matrix(0.13024691358024676,0,0,0.13024691358024676,103.9370370370369,0)" xlink:href="#bw"/><use transform="matrix(0.13024691358024676,0,0,0.13024691358024676,132.46111111111094,0)" xlink:href="#au"/><use transform="matrix(0.13024691358024676,0,0,0.13024691358024676,160.98518518518497,0)" xlink:href="#av"/><use transform="matrix(0.13024691358024676,0,0,0.13024691358024676,179.21975308641953,0)" xlink:href="#aB"/><use transform="matrix(0.13024691358024676,0,0,0.13024691358024676,194.71913580246888,0)" xlink:href="#as"/><use transform="matrix(0.13024691358024676,0,0,0.13024691358024676,220.76851851851825,0)" xlink:href="#ay"/><use transform="matrix(0.13024691358024676,0,0,0.13024691358024676,262.44753086419723,0)" xlink:href="#aD"/><use transform="matrix(0.13024691358024676,0,0,0.13024691358024676,275.4722222222219,0)" xlink:href="#ax"/><use transform="matrix(0.13024691358024676,0,0,0.13024691358024676,301.52160493827125,0)" xlink:href="#az"/><use transform="matrix(0.13024691358024676,0,0,0.13024691358024676,330.04567901234526,0)" xlink:href="#aB"/><use transform="matrix(0.13024691358024676,0,0,0.13024691358024676,345.54506172839467,0)" xlink:href="#au"/></g><g id="ac"><use transform="matrix(0.13024691358024676,0,0,0.13024691358024676,0,0)" xlink:href="#aw"/><use transform="matrix(0.13024691358024676,0,0,0.13024691358024676,28.52407407407404,0)" xlink:href="#ax"/></g><g id="ad"><use transform="matrix(0.13024691358024676,0,0,0.13024691358024676,0,0)" xlink:href="#ar"/><use transform="matrix(0.13024691358024676,0,0,0.13024691358024676,13.024691358024675,0)" xlink:href="#as"/><use transform="matrix(0.13024691358024676,0,0,0.13024691358024676,39.074074074074026,0)" xlink:href="#aA"/></g><g id="ae"><use transform="matrix(0.13024691358024676,0,0,0.13024691358024676,0,0)" xlink:href="#ay"/><use transform="matrix(0.13024691358024676,0,0,0.13024691358024676,41.67901234567896,0)" xlink:href="#ax"/><use transform="matrix(0.13024691358024676,0,0,0.13024691358024676,67.72839506172832,0)" xlink:href="#aw"/><use transform="matrix(0.13024691358024676,0,0,0.13024691358024676,96.25246913580236,0)" xlink:href="#aD"/><use transform="matrix(0.13024691358024676,0,0,0.13024691358024676,109.27716049382704,0)" xlink:href="#aF"/><use transform="matrix(0.13024691358024676,0,0,0.13024691358024676,135.32654320987638,0)" xlink:href="#aD"/><use transform="matrix(0.13024691358024676,0,0,0.13024691358024676,148.35123456790106,0)" xlink:href="#au"/><use transform="matrix(0.13024691358024676,0,0,0.13024691358024676,176.8753086419751,0)" xlink:href="#az"/><use transform="matrix(0.13024691358024676,0,0,0.13024691358024676,205.39938271604913,0)" xlink:href="#ax"/><use transform="matrix(0.13024691358024676,0,0,0.13024691358024676,231.44876543209847,0)" xlink:href="#aA"/></g><g id="af"><use transform="matrix(0.13024691358024676,0,0,0.13024691358024676,0,0)" xlink:href="#ax"/><use transform="matrix(0.13024691358024676,0,0,0.13024691358024676,26.04938271604935,0)" xlink:href="#az"/></g><g id="ag"><use transform="matrix(0.13024691358024676,0,0,0.13024691358024676,0,0)" xlink:href="#ax"/><use transform="matrix(0.13024691358024676,0,0,0.13024691358024676,26.04938271604935,0)" xlink:href="#ar"/></g><g id="ah"><use transform="matrix(0.13024691358024676,0,0,0.13024691358024676,0,0)" xlink:href="#aB"/><use transform="matrix(0.13024691358024676,0,0,0.13024691358024676,15.499382716049364,0)" xlink:href="#aD"/><use transform="matrix(0.13024691358024676,0,0,0.13024691358024676,28.52407407407404,0)" xlink:href="#ax"/><use transform="matrix(0.13024691358024676,0,0,0.13024691358024676,54.57345679012339,0)" xlink:href="#ay"/><use transform="matrix(0.13024691358024676,0,0,0.13024691358024676,96.25246913580236,0)" xlink:href="#bw"/><use transform="matrix(0.13024691358024676,0,0,0.13024691358024676,124.7765432098764,0)" xlink:href="#au"/></g><g id="ai"><use transform="matrix(0.13024691358024676,0,0,0.13024691358024676,0,0)" xlink:href="#aw"/><use transform="matrix(0.13024691358024676,0,0,0.13024691358024676,28.52407407407404,0)" xlink:href="#aD"/><use transform="matrix(0.13024691358024676,0,0,0.13024691358024676,41.54876543209872,0)" xlink:href="#as"/></g><g id="aj"><use transform="matrix(0.13024691358024676,0,0,0.13024691358024676,0,0)" xlink:href="#ay"/><use transform="matrix(0.13024691358024676,0,0,0.13024691358024676,41.67901234567896,0)" xlink:href="#ax"/><use transform="matrix(0.13024691358024676,0,0,0.13024691358024676,67.72839506172832,0)" xlink:href="#aA"/></g><g id="ak"><use transform="matrix(0.13024691358024676,0,0,0.13024691358024676,0,0)" xlink:href="#aA"/><use transform="matrix(0.13024691358024676,0,0,0.13024691358024676,26.04938271604935,0)" xlink:href="#ax"/><use transform="matrix(0.13024691358024676,0,0,0.13024691358024676,52.0987654320987,0)" xlink:href="#ay"/><use transform="matrix(0.13024691358024676,0,0,0.13024691358024676,93.77777777777766,0)" xlink:href="#as"/><use transform="matrix(0.13024691358024676,0,0,0.13024691358024676,119.82716049382701,0)" xlink:href="#az"/><use transform="matrix(0.13024691358024676,0,0,0.13024691358024676,148.35123456790106,0)" xlink:href="#as"/></g><path fill="#333" d="M238-95c0 69-44 99-111 99C63 4 22-25 22-93v-155h51v151c-1 38 19 59 55 60 90 1 49-130 58-211h52v153" id="bx"/><g id="al"><use transform="matrix(0.09320987654320984,0,0,0.09320987654320984,0,0)" xlink:href="#bx"/><use transform="matrix(0.09320987654320984,0,0,0.09320987654320984,24.141358024691346,0)" xlink:href="#aA"/><use transform="matrix(0.09320987654320984,0,0,0.09320987654320984,42.78333333333332,0)" xlink:href="#ax"/><use transform="matrix(0.09320987654320984,0,0,0.09320987654320984,61.425308641975285,0)" xlink:href="#av"/></g><g id="am"><use transform="matrix(0.1055555555555555,0,0,0.1055555555555555,0,0)" xlink:href="#ay"/><use transform="matrix(0.1055555555555555,0,0,0.1055555555555555,33.77777777777776,0)" xlink:href="#ax"/><use transform="matrix(0.1055555555555555,0,0,0.1055555555555555,54.88888888888886,0)" xlink:href="#as"/><use transform="matrix(0.1055555555555555,0,0,0.1055555555555555,75.99999999999996,0)" xlink:href="#aA"/><use transform="matrix(0.1055555555555555,0,0,0.1055555555555555,97.11111111111106,0)" xlink:href="#aK"/><use transform="matrix(0.1055555555555555,0,0,0.1055555555555555,120.22777777777772,0)" xlink:href="#av"/><use transform="matrix(0.1055555555555555,0,0,0.1055555555555555,135.00555555555547,0)" xlink:href="#ax"/><use transform="matrix(0.1055555555555555,0,0,0.1055555555555555,156.11666666666656,0)" xlink:href="#aA"/><use transform="matrix(0.1055555555555555,0,0,0.1055555555555555,177.22777777777765,0)" xlink:href="#bk"/></g><use transform="matrix(0.1055555555555555,0,0,0.1055555555555555,0,0)" xlink:href="#bl" id="an"/><path fill="#333" d="M140-251c80 0 125 45 125 126S219 4 139 4C58 4 15-44 15-125s44-126 125-126zm-1 214c52 0 73-35 73-88 0-50-21-86-72-86-52 0-73 35-73 86s22 88 72 88" id="by"/><g id="ao"><use transform="matrix(0.07469135802469135,0,0,0.07469135802469135,0,0)" xlink:href="#aA"/><use transform="matrix(0.07469135802469135,0,0,0.07469135802469135,14.938271604938269,0)" xlink:href="#ax"/><use transform="matrix(0.07469135802469135,0,0,0.07469135802469135,29.876543209876537,0)" xlink:href="#az"/><use transform="matrix(0.07469135802469135,0,0,0.07469135802469135,46.23395061728394,0)" xlink:href="#aA"/><use transform="matrix(0.07469135802469135,0,0,0.07469135802469135,61.1722222222222,0)" xlink:href="#au"/><use transform="matrix(0.07469135802469135,0,0,0.07469135802469135,77.52962962962961,0)" xlink:href="#av"/><use transform="matrix(0.07469135802469135,0,0,0.07469135802469135,87.9864197530864,0)" xlink:href="#by"/><use transform="matrix(0.07469135802469135,0,0,0.07469135802469135,108.89999999999998,0)" xlink:href="#az"/><use transform="matrix(0.07469135802469135,0,0,0.07469135802469135,125.25740740740738,0)" xlink:href="#ax"/><use transform="matrix(0.07469135802469135,0,0,0.07469135802469135,140.19567901234566,0)" xlink:href="#aJ"/><use transform="matrix(0.07469135802469135,0,0,0.07469135802469135,162.52839506172836,0)" xlink:href="#ax"/><use transform="matrix(0.07469135802469135,0,0,0.07469135802469135,177.46666666666664,0)" xlink:href="#as"/><use transform="matrix(0.07469135802469135,0,0,0.07469135802469135,192.40493827160492,0)" xlink:href="#aA"/><use transform="matrix(0.07469135802469135,0,0,0.07469135802469135,207.3432098765432,0)" xlink:href="#aK"/><use transform="matrix(0.07469135802469135,0,0,0.07469135802469135,223.7006172839506,0)" xlink:href="#av"/><use transform="matrix(0.07469135802469135,0,0,0.07469135802469135,234.1574074074074,0)" xlink:href="#ax"/><use transform="matrix(0.07469135802469135,0,0,0.07469135802469135,249.09567901234567,0)" xlink:href="#aA"/><use transform="matrix(0.07469135802469135,0,0,0.07469135802469135,264.03395061728395,0)" xlink:href="#bk"/></g><use transform="matrix(0.07469135802469135,0,0,0.07469135802469135,0,0)" xlink:href="#bl" id="ap"/></defs></g></svg>